<?xml version="1.0" standalone="no"?>
<!DOCTYPE svg PUBLIC "-//W3C//DTD SVG 1.1//EN" "http://www.w3.org/Graphics/SVG/1.1/DTD/svg11.dtd" >
<svg xmlns="http://www.w3.org/2000/svg">
<metadata></metadata>
<defs>
<font id="expediaiconsregular" horiz-adv-x="512" >
<font-face units-per-em="512" ascent="416" descent="-96" />
<missing-glyph horiz-adv-x="500" />
<glyph unicode="&#xd;" horiz-adv-x="170" />
<glyph unicode="&#xe000;" horiz-adv-x="500" d="M0 0v0v0v0v0z" />
<glyph unicode="&#xe001;" d="M401 46q-12 4 -29.5 10t-24 8.5t-16 7t-12 9.5t-5 12.5t-2.5 18.5q0 12 12.5 26.5t17.5 40.5q1 6 4.5 9t7.5 4t8 9t5 24q0 8 -1.5 13.5t-3.5 7.5l-1 2q1 27 3 48q1 11 -3 25.5t-14.5 30t-34 26.5t-56.5 11t-56.5 -11t-34 -26.5t-14.5 -30t-3 -25.5l3 -48q-6 -5 -6 -23 q1 -16 5 -24t8 -9t7.5 -4t4.5 -9q5 -26 17.5 -40.5t12.5 -26.5q0 -11 -2.5 -18.5t-5 -12.5t-12 -9.5t-16 -7t-24 -8.5t-29.5 -10q-110 -40 -110 -66v-49h255h255v49q0 26 -110 66z" />
<glyph unicode="&#xe002;" d="M256 414q-105 0 -179.5 -74.5t-74.5 -179.5t74.5 -179.5t179.5 -74.5t179.5 74.5t74.5 179.5t-74.5 179.5t-179.5 74.5zM256 -30q-79 0 -134.5 55.5t-55.5 134.5t55.5 134.5t134.5 55.5t134.5 -55.5t55.5 -134.5t-55.5 -134.5t-134.5 -55.5zM351 192h-63v63 q0 13 -9.5 22.5t-22.5 9.5t-22.5 -9.5t-9.5 -22.5v-95q0 -13 9.5 -22.5t22.5 -9.5h95q13 0 22.5 9.5t9.5 22.5t-9.5 22.5t-22.5 9.5z" />
<glyph unicode="&#xe003;" d="M284.5 387q-94.5 0 -161 -66.5t-66.5 -160.5q0 -14 2 -28h-59l87 -100l84 100h-55q-2 14 -2 28q0 71 50 121t120.5 50t120.5 -50t50 -121t-50 -121t-121 -50q-14 0 -28 3v-58q14 -1 28 -1q95 0 161.5 66.5t66.5 160.5t-66.5 160.5t-161 66.5zM284.5 274q-11.5 0 -20 -8.5 t-8.5 -20.5v-85q0 -12 8.5 -20t19.5 -8h86q11 0 19.5 8t8.5 20t-8.5 20t-19.5 8h-57v57q0 12 -8.5 20.5t-20 8.5z" />
<glyph unicode="&#xe004;" d="M387 310l-63 67q-7 7 -17 7t-17 -7.5t-7 -18t7 -18.5l36 -38h-155q-10 0 -17.5 -8t-7.5 -19.5t7.5 -20t17.5 -8.5h155l-36 -38q-7 -7 -7 -18t7 -18.5t17 -7.5t17 8l17 18l46 48l34 36zM341 138h-155l36 38q7 7 7 18t-7 18.5t-17 7.5t-17 -8l-17 -18l-46 -48l-34 -36 l34 -36l63 -67q7 -7 17 -7t17 7.5t7 18t-7 18.5l-36 38h155q10 0 17.5 8t7.5 19.5t-7.5 20t-17.5 8.5z" />
<glyph unicode="&#xe005;" d="M256 415q-106 0 -180.5 -74.5t-74.5 -180.5t74.5 -180.5t180.5 -74.5t180.5 74.5t74.5 180.5t-74.5 180.5t-180.5 74.5zM279 5q-11 -10 -26 -10q-18 0 -29 13q-10 11 -10 26q0 17 13 29q11 10 26 10q17 0 28 -13q10 -11 10 -26q0 -17 -12 -29zM335 156q-19 -16 -47 -22 v-4q0 -14 -5 -23q-4 -8 -12 -13q-9 -5 -18 -5q-13 0 -23 9t-11 26q-1 2 -1 12v22q0 14 6 20q5 6 12 8q4 1 12 2q40 7 40 36q0 17 -13 25q-10 6 -22 6q-19 0 -35 -21q-8 -11 -13 -15q-8 -5 -18 -5q-15 0 -24 10q-9 9 -9 23q0 28 27 51q31 28 75 28q31 0 58 -14q28 -15 42 -42 q10 -19 10 -44q0 -43 -31 -70z" />
<glyph unicode="&#xe006;" d="M256 384q-70 0 -119 -49t-49 -119v-8v-1q2 -39 20 -81t42 -74.5t48.5 -59.5t40.5 -41.5t17 -14.5q7 5 17.5 15t38.5 40.5t50 61t41 73t21 81.5v1v8q0 70 -49 119t-119 49zM256 160q-23 0 -39.5 16.5t-16.5 39.5t16.5 39.5t39.5 16.5t39.5 -16.5t16.5 -39.5t-16.5 -39.5 t-39.5 -16.5z" />
<glyph unicode="&#xe007;" d="M7 283q48 -134 142 -231q97 -93 230 -141q30 -10 59.5 -0.5t46.5 34.5l19 27q8 12 5.5 27t-14.5 24l-87 63q-16 12 -36.5 13t-38.5 -9l-55 -33q-36 25 -68 56q-32 34 -57 69l33 55q10 18 9 38.5t-13 36.5l-64 87q-9 12 -23.5 14.5t-27.5 -5.5l-26 -19q-26 -17 -35.5 -47 t1.5 -59z" />
<glyph unicode="&#xe008;" d="M150 139v53q0 13 9 22.5t23 9.5h53v53q0 22 21 30v55q0 5 -3 8t-8 3h-149q-4 0 -7 -3t-3 -8v-74h-75q-4 0 -7 -3.5t-3 -7.5v-140q5 2 10 2h139zM128 330h85v-42h-85v42zM501 203h-75v74q0 4 -3 7.5t-7 3.5h-149q-5 0 -8 -3.5t-3 -7.5v-74h-74q-5 0 -8 -3.5t-3 -7.5v-53 h74q14 0 23 -9.5t9 -22.5v-149q0 -5 -2 -11h226q4 0 7 3t3 8v234q0 4 -3 7.5t-7 3.5zM384 203h-85v42h85v-42zM245 117h-234q-4 0 -7 -3t-3 -7v-149q0 -5 3 -8t7 -3h234q5 0 8 3t3 8v149q0 4 -3 7t-8 3z" />
<glyph unicode="&#xe009;" d="M512 80v192l-171 -107zM496 336h-480q-7 0 -11.5 -4.5t-4.5 -11.5v-16l256 -160l256 160v16q0 7 -4.5 11.5t-11.5 4.5zM0 272v-192l171 85zM320 152l-64 -40l-64 40v-8l-192 -96v-48q0 -7 4.5 -11.5t11.5 -4.5h480q7 0 11.5 4.5t4.5 11.5v48l-192 96v8z" />
<glyph unicode="&#xe00a;" d="M0 272h96v96h-96v-96zM160 368v-96h352v96h-352zM0 112h96v96h-96v-96zM160 112h352v96h-352v-96zM0 -48h96v96h-96v-96zM160 -48h352v96h-352v-96z" />
<glyph unicode="&#xe00b;" d="M471.5 344.5q-40.5 40.5 -98 40.5t-98.5 -40q-32 -33 -38.5 -77.5t13.5 -83.5l-86 -86l-62 61l-40 -41l61 -61l-21 -20l-61 61l-41 -41l123 -122l188 188q38 -20 83 -13t77 39q41 40 41 97.5t-40.5 98zM415 197q-19 -19 -46 -19t-46 19t-19 46t19 46t46 19t46 -19t19 -46 t-19 -46z" />
<glyph unicode="&#xe00c;" d="M256 415q-106 0 -180.5 -74.5t-74.5 -180.5t74.5 -180.5t180.5 -74.5t180.5 74.5t74.5 180.5t-74.5 180.5t-180.5 74.5zM288 30q0 -19 -5 -27q-3 -7 -12 -12q-7 -4 -16 -4q-12 0 -21 8t-11 23v12v143q0 18 4 27q4 7 12 12q8 4 16 4q12 0 22 -9q9 -8 10 -23l1 -11v-143z M281 268q-11 -10 -25 -10q-17 0 -28 13q-10 11 -10 25q0 17 13 28q10 10 26 10t27 -13q10 -11 10 -25q0 -17 -13 -28z" />
<glyph unicode="&#xe00d;" d="M448 -31v319q0 13 -9.5 22.5t-22.5 9.5h-64v64q0 13 -9.5 22.5t-22.5 9.5h-224q-13 0 -22.5 -9.5t-9.5 -22.5v-415h-64v-65h512v65h-64zM192 0h-64v64h64v-64zM192 96h-64v64h64v-64zM192 192h-64v64h64v-64zM192 288h-64v64h64v-64zM288 -32h-64v96h64v-96zM288 96h-64 v64h64v-64zM288 192h-64v64h64v-64zM288 288h-64v64h64v-64zM384 0h-64v64h64v-64zM384 96h-64v64h64v-64zM384 192h-64v64h64v-64z" />
<glyph unicode="&#xe00e;" d="M256 416q-106 0 -181 -75t-75 -181t75 -181t181 -75t181 75t75 181t-75 181t-181 75zM331 48q-16 -19 -41 -27q-5 -1 -14 -3v-23q0 -11 -2 -17q-5 -10 -18 -10q-12 0 -17 10q-2 6 -2 17v20q-25 2 -45 10q-32 12 -32 36q0 12 8 21q8 10 20 10q6 0 13 -3l21 -7q17 -6 32 -6 q17 0 26 11q7 7 7 17q0 15 -13 22q-11 6 -38 13q-29 8 -39 14q-20 11 -30 32q-6 15 -6 33q0 35 25 61q16 16 37 23q5 1 14 3v20q0 12 2 17q5 10 17 10q13 0 18 -10q2 -5 2 -17v-20q26 -4 41 -13q17 -10 17 -26q0 -14 -10 -24q-8 -6 -19 -6q-7 0 -26 6q-13 4 -22 4 q-12 0 -21 -6q-10 -7 -10 -18q0 -7 6 -13q4 -4 19 -8q46 -13 65 -25q36 -23 36 -68q0 -35 -21 -60z" />
<glyph unicode="&#xe00f;" d="M469 -50q-10 0 -23 13q-23 23 -48 23t-47 -23q-13 -13 -23.5 -13t-23.5 13q-23 23 -47.5 23t-47.5 -23q-13 -13 -23.5 -13t-23.5 13q-23 23 -47.5 23t-47.5 -23q-13 -13 -23 -13q-7 0 -12.5 -5t-5.5 -12t5.5 -12t12.5 -5q24 0 47 23q13 12 23.5 12t23.5 -12 q23 -23 47.5 -23t47.5 23q13 12 23.5 12t23.5 -12q22 -23 47 -23t48 23q13 12 23.5 12t23.5 -12q22 -23 47 -23q7 0 12 5t5 12t-5 12t-12 5zM388 373h-107v31h-47v-31h-109v-31h263v31zM94 245l162 63l162 -63v51h30v31h-381v-31h27v-51zM145 4q17 -6 35 -24l5 -6h1l5 6 q28 27 58 30v268l-249 -95v-39q59 -6 96 -43.5t49 -96.5zM202.5 223q8.5 0 14.5 -6t6 -14.5t-6 -14.5t-14.5 -6t-14.5 6t-6 14.5t6 14.5t14.5 6zM263 278v-268q31 -3 58 -30l6 -6q1 0 6 6q18 17 34 24q12 58 50 96t95 44v39zM311 181q-9 0 -15 6.5t-6 15t6 14.5t15 6t15 -6 t6 -14.5t-6 -15t-15 -6.5zM272 228z" />
<glyph unicode="&#xe010;" d="M486 201l-28 7q-8 33 -26 61l23 36q8 8 8 18.5t-8 18.5l-18 18q-7 7 -18 7t-18 -7l-37 -23q-28 17 -60 25l-7 28q0 11 -8 18t-19 7h-28q-11 0 -19 -7t-8 -18l-7 -28q-32 -8 -61 -26l-36 24q-8 7 -18.5 7t-18.5 -7l-18 -18q-7 -8 -7 -18.5t7 -18.5l24 -36q-18 -29 -26 -61 l-28 -7q-11 0 -18 -8t-7 -19v-28q0 -11 7 -19t18 -8l28 -7q8 -32 25 -60l-23 -37q-7 -7 -7 -18t7 -18l18 -18q8 -8 18.5 -8t18.5 8l36 23q29 -18 61 -25l7 -29q0 -11 8 -18t19 -7h28q11 0 19 7t8 18l7 29q32 7 61 25l36 -23q7 -8 18 -8t18 8l18 18q8 7 8 18t-8 18l-23 36 q18 29 26 61l28 7q11 0 18 8t7 19v28q0 11 -7 19t-18 8zM256 96q-26 0 -45 19t-19 45t19 45t45 19t45 -19t19 -45t-19 -45t-45 -19z" />
<glyph unicode="&#xe011;" d="M430 358l-237 -238l-111 111l-80 -79l191 -190l317 317z" />
<glyph unicode="&#xe012;" d="M367 415h-222q-27 0 -45.5 -19t-18.5 -45v-382q0 -26 18.5 -45t45.5 -19h222q27 0 45.5 19t18.5 45v382q0 26 -18.5 45t-45.5 19zM256 -76q-12 0 -21 8.5t-9 20.5t9 21t21 9t20.5 -9t8.5 -21t-8.5 -20.5t-20.5 -8.5zM399 33q0 -13 -9 -22.5t-23 -9.5h-222q-14 0 -23 9.5 t-9 22.5v286q0 13 9 22.5t23 9.5h222q14 0 23 -9.5t9 -22.5v-286z" />
<glyph unicode="&#xe013;" d="M495 184h-13l-62 165q-4 10 -15 10h-298q-11 0 -15 -10l-62 -165h-13q-6 0 -11 -4.5t-5 -11.5v-127q0 -7 5 -11.5t11 -4.5v-48q0 -7 5 -11.5t11 -4.5h80q6 0 11 4.5t5 11.5v48h254v-48q0 -7 5 -11.5t11 -4.5h80q6 0 11 4.5t5 11.5v48q6 0 11 4.5t5 11.5v127q0 7 -5 11.5 t-11 4.5zM463 112.5q0 -16.5 -11.5 -28.5t-28 -12t-28.5 12t-12 28.5t12 28t28.5 11.5t28 -11.5t11.5 -28zM88.5 72q-16.5 0 -28 12t-11.5 28.5t11.5 28t28 11.5t28.5 -11.5t12 -28t-12 -28.5t-28.5 -12zM81 184l48 127h254l48 -127h-350z" />
<glyph unicode="&#xe014;" d="M447 414h-382q-26 0 -44.5 -18.5t-18.5 -44.5v-382q0 -26 18.5 -44.5t44.5 -18.5h382q26 0 44.5 18.5t18.5 44.5v382q0 26 -18.5 44.5t-44.5 18.5zM447 -31h-382v286h382v-286zM415 128l-127 -127h127v127z" />
<glyph unicode="&#xe015;" d="M2 235v-239q0 -25 17.5 -42.5t42.5 -17.5h60v358h-60q-25 0 -42.5 -17.5t-17.5 -41.5zM450 294h-60v-358h60q25 0 42.5 17.5t17.5 42.5v239q0 24 -17.5 41.5t-42.5 17.5zM331 384h-150q-12 0 -21 -8.5t-9 -21.5v-418h210v418q0 13 -9 21.5t-21 8.5zM331 294h-150v60h150 v-60z" />
<glyph unicode="&#xe016;" d="M299 187l31 47l-43 -28l-31 123l-30 -121l-44 26l26 -44l-121 -30l121 -30l-26 -44l48 29l26 -124l27 126l47 -31l-31 47l126 27zM256 130q-13 0 -21.5 8.5t-8.5 21.5t8.5 21.5t21.5 8.5t21.5 -8.5t8.5 -21.5t-8.5 -21.5t-21.5 -8.5zM256 414q-105 0 -179.5 -74.5 t-74.5 -179.5t74.5 -179.5t179.5 -74.5t179.5 74.5t74.5 179.5t-74.5 179.5t-179.5 74.5zM256 -30q-79 0 -134.5 55.5t-55.5 134.5t55.5 134.5t134.5 55.5t134.5 -55.5t55.5 -134.5t-55.5 -134.5t-134.5 -55.5z" />
<glyph unicode="&#xe017;" d="M256 293q-45 0 -93.5 -18t-83 -42t-57 -47.5t-22.5 -36t22.5 -36t57 -48t83 -42.5t93.5 -18t93.5 18t83 42.5t57 48t22.5 36t-22.5 36t-57 47.5t-83 42t-93.5 18zM256 53q-40 0 -68 28.5t-28 68t28 67.5t68 28t68 -28t28 -67.5t-28 -68t-68 -28.5zM224 149.5 q0 -13.5 9.5 -23t22.5 -9.5t22.5 9.5t9.5 23t-9.5 22.5t-22.5 9t-22.5 -9t-9.5 -22.5z" />
<glyph unicode="&#xe018;" d="M218.5 103q-53.5 54 -63.5 129t26 139q-27 -15 -49 -37q-65 -66 -65 -159t65.5 -158.5t158.5 -65.5t158 66q22 22 38 49q-64 -37 -139.5 -27t-129 64z" />
<glyph unicode="&#xe019;" d="M443 92l-92 -92l-35 -34q-14 -14 -34 -14t-34.5 14t-14.5 34t14 35l79 77h-277q-20 0 -34.5 14t-14.5 34t14.5 34t34.5 14h277l-79 77q-14 15 -14 35t14.5 34t34.5 14t34 -14l127 -126l69 -68z" />
<glyph unicode="&#xe01a;" d="M232.5 376.5q1.5 17.5 14.5 29t30.5 10t29 -15t10 -31t-14.5 -28.5t-30.5 -10t-29 14.5t-10 31zM400 176l-59 40l-42 85q-13 20 -34 21q-15 2 -30 -8l-85 -69q-4 -4 -6 -10l-18 -83q-1 -2 -1 -3q0 -8 5 -14t13 -6q7 -1 13 4t7 12l16 71l30 24l-46 -201l-54 -91 q-4 -7 -4 -12q-1 -12 6.5 -21t19.5 -10q17 -2 27 14l59 98q0 1 1.5 3.5t2.5 5t1 3.5l15 65l61 -66l19 -101q5 -21 25 -22q12 -1 21 6.5t10 19.5v3v3l-20 107q-1 5 -4 9l-75 89l20 84l15 -32q2 -3 5 -5l64 -44q6 -3 9 -3q7 0 13 5t7 13q1 10 -7 16z" />
<glyph unicode="&#xe01b;" d="M256 416q-106 0 -181 -75t-75 -181t75 -181t181 -75t181 75t75 181t-75 181t-181 75zM360.5 68.5q-47.5 -47.5 -115 -47.5t-115.5 48q-15 16 -27 35q47 -26 101.5 -19t93.5 46t46.5 94t-19.5 101q20 -11 36 -27q48 -48 47.5 -115.5t-48 -115z" />
<glyph unicode="&#xe01c;" d="M134.5 170.5q4.5 5.5 4 13t-5.5 12.5l-26 23q-5 4 -12 3.5t-11.5 -6t-4 -13t6.5 -11.5l25 -23q5 -5 12 -4.5t11.5 6zM46 59l-31 -3q-6 0 -10 -4.5t-3.5 -11t5.5 -10t11 -3.5l30 2q7 1 11 5.5t3.5 10.5t-5.5 10t-11 4zM239 236q1 -6 6.5 -10t13.5 -3.5t13 5t4 10.5l-3 30 q0 6 -6 10t-13.5 3.5t-12.5 -5t-4 -10.5zM510.5 49.5q-0.5 7.5 -5 12.5t-10.5 4l-30 -3q-6 0 -10 -6t-3.5 -13.5t5 -12t11.5 -4.5l29 3q6 1 10 6.5t3.5 13zM445.5 218.5q-5.5 4.5 -13 4t-12.5 -5.5l-22 -25q-5 -6 -4.5 -12.5t6 -11t13 -4t11.5 5.5l23 25q5 6 4.5 12.5t-6 11 zM245 184q-65 -5 -107.5 -51t-37.5 -106h312q-5 63 -55 112.5t-112 44.5z" />
<glyph unicode="&#xe01d;" d="M256 416q-106 0 -181 -75t-75 -181t75 -181t181 -75t181 75t75 181t-75 181t-181 75zM254 293q6 0 10.5 -3t5.5 -8l2 -23q0 -5 -4 -8.5t-10 -4t-10.5 2.5t-4.5 8l-2 23q-1 5 3 9t10 4zM91 93l-24 -2q-5 0 -9 3t-4.5 8t3 8.5t8.5 3.5l24 2q5 1 9 -2.5t4.5 -8t-3 -8.5 t-8.5 -4zM119.5 241.5q8.5 10.5 18.5 1.5l20 -18q10 -9 1.5 -20t-18.5 -1l-20 18q-10 9 -1.5 19.5zM132 91q-4 48 29.5 84.5t85.5 40.5q50 3 89.5 -36t43.5 -89h-248zM408 225l-18 -20q-9 -10 -20 -1.5t-2 18.5l19 20q9 10 19.5 1.5t1.5 -18.5zM447 93l-23 -2q-5 0 -8.5 3.5 t-4 9.5t2.5 10.5t8 5.5l24 2q4 1 8 -3t4.5 -10t-3 -10.5t-8.5 -5.5z" />
<glyph unicode="&#xe01e;" d="M509 7v4t-1 4l-1 2q-2 9 -8 15l-212 362q-2 4 -5 8q-1 2 -4 4q-10 9 -23 9q-12 0 -21 -9q-1 0 -1 -0.5t-1 -0.5q-1 -2 -2 -3q-3 -4 -5 -8l-213 -363q-5 -6 -7 -13q-7 -17 4 -33v0q1 -2 3 -4l2 -2q1 -1 3 -2q2 -2 3 -2v-0.5t0.5 -0.5t1 -0.5t1.5 -0.5q2 -1 3 -1 q1 -1 3 -1.5t4 -0.5t4 -1h0.5h1.5h434q1 0 2 0.5l1 0.5h2q3 0 6 1h1q3 1 6 3v0q4 2 6.5 4.5l4.5 4.5v1q2 2 4 5v1q1 2 2 5v1q1 2 1 5q0 2 0.5 3l0.5 1l-0.5 1zM256.5 23q-14.5 0 -25 10.5t-10.5 25t10.5 25t25 10.5t25 -10.5t10.5 -25t-10.5 -25t-25 -10.5zM256.5 128 q-11.5 0 -19.5 14t-12 32t-6.5 40t-2.5 32v14q0 13 7 19.5t13.5 7t19.5 0.5h14.5t12 -2.5t11 -8t3.5 -15.5q0 -5 -0.5 -14.5t-2.5 -32t-6 -40.5t-12 -32t-19.5 -14z" />
<glyph unicode="&#xe01f;" d="M500 404q-12 12 -28.5 12t-28.5 -12l-112 -112l-303 39l-28 -28l242 -100l-97 -98l-118 13l-17 -16l122 -60q2 -1 3 -3l2 -2l60 -121l16 16l-12 116l98 98l100 -242l28 28l-39 303l112 112q12 12 12 28.5t-12 28.5zM272 228z" />
<glyph unicode="&#xe020;" d="M216 103l-53 53l-20 20q-8 8 -8 20t8.5 20t20 8t19.5 -8l73 -72l73 72q8 8 19.5 8t20 -8t8.5 -20t-8 -20l-73 -73l-40 -40z" />
<glyph unicode="&#xe021;" d="M327 148l-71 -69l-71 69q-10 10 -24 10t-23.5 -9.5t-9.5 -23t9 -23.5l95 -92q10 -10 24 -10t24 10l95 92q9 10 9 23.5t-9.5 23t-23.5 9.5t-24 -10zM232 140q10 -9 24 -9t24 9l95 93q9 9 9 22.5t-9.5 23t-23.5 9.5t-24 -9l-71 -70l-71 70q-10 9 -24 9t-23.5 -9.5t-9.5 -23 t9 -22.5z" />
<glyph unicode="&#xe022;" d="M309 144l80 79q11 11 11 26.5t-11 26.5t-26.5 11t-26.5 -11l-80 -79l-80 79q-11 11 -26.5 11t-26.5 -11t-11 -26.5t11 -26.5l80 -79l-80 -80q-11 -11 -11 -26.5t11 -26.5t26.5 -11t26.5 11l80 80l80 -80q11 -11 26.5 -11t26.5 11t11 26.5t-11 26.5z" />
<glyph unicode="&#xe023;" d="M477 26h-46v111h-351v-111h-45q-14 0 -24 10t-10 24v168q0 15 10 25t24 10h442q14 0 24 -10t10 -25v-168q0 -14 -10 -24t-24 -10zM112 374h287v-79h-287v79zM404 -54h-295v160h295v-160z" />
<glyph unicode="&#xe024;" d="M399 351h-191q-20 0 -33.5 -14t-13.5 -34v-191q0 -19 14 -33t33 -14h191q20 0 34 14t14 33v191q0 20 -14 34t-34 14zM399 112h-191v191h191v-191zM113 160h-48v-143q0 -20 14 -34t34 -14h143v48h-143v143z" />
<glyph unicode="&#xe025;" d="M310 107l-71 -70l-26 -26q-11 -11 -26.5 -11t-26.5 10.5t-11 26t11 26.5l96 97l-96 97q-11 11 -11 26.5t11 26t26.5 10.5t26.5 -11l97 -96l53 -53z" />
<glyph unicode="&#xe026;" d="M463 65.5q0 26.5 -19 45.5t-46 19h-204l-13 48h205v47h-217l-44 161q-4 15 -18 23t-29.5 4t-23.5 -18t-3 -29l72 -269l18 -67q7 -24 31 -28l4 -1h1.5h1.5h159h17l-13 -49h-156l12 -46h131h48l13 46l13 49h-5q27 0 46 19t19 45.5z" />
<glyph unicode="&#xe027;" d="M256 416q-106 0 -181 -75t-75 -181t75 -181t181 -75t181 75t75 181t-75 181t-181 75zM408 273l-77 -78l26 -210l-19 -19l-69 167l-69 -68l9 -80l-11 -12l-41 85q-1 1 -2 1l-2 2l-85 42l12 11l82 -9l67 68l-168 69l20 20l210 -27l78 77q8 9 19.5 9t20 -8.5t8.5 -20 t-9 -19.5z" />
<glyph unicode="&#xe028;" d="M296.5 220q-6.5 0 -11 -4.5t-4.5 -11t4.5 -11t11 -4.5t11 4.5t4.5 11t-4.5 11t-11 4.5zM218 190q6 0 10.5 4t4.5 10t-4.5 10.5t-10.5 4.5t-10.5 -4.5t-4.5 -10.5t4.5 -10t10.5 -4zM256 416q-106 0 -181 -75t-75 -181t75 -181t181 -75t181 75t75 181t-75 181t-181 75z M162 328h79v22h34v-22h77v-23h-190v23zM120 294h275v-22h-21v-37l-117 45l-118 -45v37h-19v22zM72 163v27l179 69v-194q-21 -2 -41 -21q-4 -4 -4 -5q0 1 -4 4q-14 13 -25 18q-9 43 -36 70t-69 32zM411 -3q-18 0 -35 17q-9 9 -16.5 9t-16.5 -9q-17 -17 -35 -17t-34 17 q-9 9 -17 9t-17 -9q-16 -17 -34 -17t-35 17q-9 9 -16.5 9t-16.5 -9q-17 -17 -35 -17q-5 0 -8.5 4t-3.5 9t3.5 8.5t8.5 3.5q8 0 17 9q17 17 35 17t34 -17q9 -9 16.5 -9t17.5 9q16 17 34 17t34 -17q10 -9 17.5 -9t16.5 9q17 17 34.5 17t34.5 -17q9 -9 17 -9q5 0 8.5 -3.5 t3.5 -8.5t-3.5 -9t-8.5 -4zM337 61q-11 -5 -24 -17l-5 -5l-4 4q-20 20 -42 22v194l180 -69v-27q-42 -5 -69 -32.5t-36 -69.5z" />
<glyph unicode="&#xe029;" d="M136 166q-12 0 -20.5 -8.5t-8.5 -20t8.5 -20t20.5 -8.5t20 8.5t8 20t-8 20t-20 8.5zM348 281h-184l-34 -92h253zM377 166q-12 0 -20.5 -8.5t-8.5 -20t8.5 -20t20.5 -8.5t20.5 8.5t8.5 20t-8.5 20t-20.5 8.5zM256 416q-106 0 -180.5 -75t-74.5 -181t74.5 -180.5 t180.5 -74.5t181 74.5t75 180.5t-75 181t-181 75zM429 74v-34q0 -5 -3.5 -8.5t-8.5 -3.5h-57q-5 0 -8.5 3.5t-3.5 8.5v34h-184v-34q0 -5 -3 -8.5t-8 -3.5h-58q-4 0 -7.5 3.5t-3.5 8.5v34q-5 0 -8.5 3.5t-3.5 8.5v92q0 4 3.5 7.5t8.5 3.5h9l45 119q2 8 10 8h216q8 0 11 -8 l44 -119h10q4 0 7.5 -3.5t3.5 -7.5v-92q0 -5 -3.5 -8.5t-7.5 -3.5z" />
<glyph unicode="&#xe02a;" d="M161 65h190v143h-190v-143zM335 144v-63h-63zM256 416q-106 0 -181 -75t-75 -181t75 -181t181 -75t181 75t75 181t-75 181t-181 75zM383 65q0 -13 -9.5 -22.5t-22.5 -9.5h-190q-13 0 -22.5 9.5t-9.5 22.5v190q0 13 9.5 22.5t22.5 9.5h190q13 0 22.5 -9.5t9.5 -22.5v-190z " />
<glyph unicode="&#xe02b;" d="M256 416q-106 0 -181 -75t-75 -181t75 -181t181 -75t181 75t75 181t-75 181t-181 75zM256 -15q-73 0 -124 51t-51 124t51 124t124 51t124 -51t51 -124t-51 -124t-124 -51zM256 291q-54 0 -92.5 -38.5t-38.5 -92.5t38.5 -92.5t92.5 -38.5t92.5 38.5t38.5 92.5t-38.5 92.5 t-92.5 38.5zM322 138h-66q-9 0 -15.5 6.5t-6.5 15.5v66q0 9 6.5 15.5t15.5 6.5t15.5 -6.5t6.5 -15.5v-44h44q9 0 15.5 -6.5t6.5 -15.5t-6.5 -15.5t-15.5 -6.5z" />
<glyph unicode="&#xe02c;" d="M256 416q-106 0 -181 -75t-75 -181t75 -181t181 -75t181 75t75 181t-75 181t-181 75zM308 91h-96l22 -24q11 -11 0.5 -22t-21.5 0l-38 41l-22 23l22 22l28 30l10 11q11 12 21.5 0.5t-0.5 -22.5l-22 -24h96q7 0 11.5 -5t4.5 -12.5t-4.5 -12.5t-11.5 -5zM337 189l-28 -30 l-11 -12q-10 -11 -20.5 0.5t-0.5 22.5l23 24h-97q-6 0 -11 5t-5 12t5 12t11 5h97l-23 24q-10 11 0.5 22.5t20.5 0.5l39 -42l21 -22z" />
<glyph unicode="&#xe02d;" d="M256 227q-14 0 -24 -10t-10 -23.5t10 -23.5t24 -10t24 10t10 23.5t-10 23.5t-24 10zM256 416q-106 0 -181 -75t-75 -181t75 -181t181 -75t181 75t75 181t-75 181t-181 75zM357 189q-1 0 -1 -1q-1 -23 -11.5 -48t-25 -44.5t-29 -35.5t-24.5 -25.5t-10 -8.5q-4 3 -10.5 9 t-23.5 24t-30 36.5t-24 44t-12 48.5l-1 1v5q0 41 29.5 70.5t71.5 29.5t71.5 -29.5t29.5 -70.5v-5z" />
<glyph unicode="&#xe02e;" d="M256 416q-106 0 -181 -75t-75 -181t75 -181t181 -75t181 75t75 181t-75 181t-181 75zM256 8q-63 0 -107.5 44.5t-44.5 107.5t44.5 107.5t107.5 44.5t107.5 -44.5t44.5 -107.5t-44.5 -107.5t-107.5 -44.5zM292 169q-12 8 -39 15q-9 3 -11 5q-4 4 -4 8q0 6 6 10q5 4 13 4 q5 0 12 -2q12 -4 16 -4q7 0 11 4q7 6 7 14q0 9 -11 16q-9 5 -24 8v11q0 7 -1 10q-3 7 -10.5 7t-10.5 -7q-2 -3 -2 -10v-12l-8 -2q-12 -3 -22 -13q-15 -15 -15 -37q0 -10 4 -19q6 -13 18 -19q6 -3 23 -8q16 -5 23 -8q7 -5 7 -13q0 -6 -4 -11q-5 -6 -15 -6q-9 0 -19 3l-13 5 q-4 1 -8 1q-7 0 -12 -5q-4 -6 -4 -13q0 -14 19 -21q12 -5 26 -6v-12q0 -7 2 -10q3 -7 10 -7q8 0 11 7q1 3 1 10v13q5 1 8 2q15 5 25 16q12 15 12 36q0 27 -21 40z" />
<glyph unicode="&#xe02f;" d="M367 416h-222q-15 0 -25.5 -11.5t-10.5 -26.5v-327q0 -16 10.5 -27t25.5 -11h222q15 0 25.5 11t10.5 27v327q0 15 -10.5 26.5t-25.5 11.5zM196 385h120q10 0 10 -15.5t-10 -15.5h-120q-10 0 -10 15.5t10 15.5zM140 303q0 8 4 14t11 6h202q7 0 11 -6t4 -14v-116 q0 -8 -4 -13.5t-11 -5.5h-202q-7 0 -11 5.5t-4 13.5v116zM163 75q-10 0 -16.5 6.5t-6.5 16.5t6.5 16.5t16.5 6.5t16.5 -6.5t6.5 -16.5t-6.5 -16.5t-16.5 -6.5zM349.5 75q-9.5 0 -16.5 6.5t-7 16.5t7 16.5t16.5 6.5t16 -6.5t6.5 -16.5t-6.5 -16.5t-16 -6.5zM295 -18l12 -16 h-103l13 16h-22l-86 -78l46 1l24 30h154l25 -31l45 1l-87 77h-21zM272 228z" />
<glyph unicode="&#xe030;" d="M176 297h41v-41h-41v41zM256 416q-106 0 -181 -75t-75 -180.5t75 -180.5t181 -75t180.5 75t74.5 180.5t-74.5 180.5t-180.5 75zM423 8h-330v42h41v268q0 8 6.5 14t14.5 6h144q9 0 15 -6t6 -14v-42h41q9 0 15 -6t6 -14v-206h41v-42zM176 235h41v-41h-41v41zM176 173h41 v-41h-41v41zM238 173h41v-41h-41v41zM176 111h41v-41h-41v41zM238 111h41v-62h-41v62zM299 173h42v-41h-42v41zM299 235h42v-41h-42v41zM299 111h42v-41h-42v41zM238 235h41v-41h-41v41zM238 297h41v-41h-41v41z" />
<glyph unicode="&#xe031;" d="M288 228h59v-30h-59v30zM256 416q-106 0 -181 -75t-75 -181t75 -181t181 -75t181 75t75 181t-75 181t-181 75zM80 250q0 8 8 8h52v52q0 7 7 7h104q7 0 7 -7v-39q-14 -5 -14 -21v-37h-38q-9 0 -15.5 -6.5t-6.5 -15.5v-37h-96q-4 0 -8 -2v98zM258 28q0 -8 -7 -8h-163 q-8 0 -8 8v104q0 7 8 7h163q7 0 7 -7v-104zM436 28q0 -8 -7 -8h-157q1 4 1 8v104q0 9 -6.5 15.5t-15.5 6.5h-52v37q0 7 7 7h52v52q0 8 8 8h104q7 0 7 -8v-52h52q7 0 7 -7v-163zM169 287h60v-29h-60v29z" />
<glyph unicode="&#xe032;" d="M182 166h148q4 0 7.5 4t3.5 10v84q0 6 -3.5 10t-7.5 4h-148q-4 0 -7 -4t-3 -10v-84q0 -6 3 -10t7 -4zM189 132q-7 0 -12 -5t-5 -12t5 -12t12 -5t12 5t5 12t-5 12t-12 5zM213 301h87q7 0 7 11t-7 11h-87q-8 0 -8 -11t8 -11zM324 132q-7 0 -12 -5t-5 -12t5 -12t12 -5t12 5 t5 12t-5 12t-12 5zM256 415q-106 0 -180.5 -74.5t-74.5 -180.5t74.5 -180.5t180.5 -74.5t180.5 74.5t74.5 180.5t-74.5 180.5t-180.5 74.5zM330 -26l-18 22l-112 1l-18 -22l-33 -1l63 57h16l-10 -12h75l-9 12h16l63 -56zM363 81q0 -12 -8 -20t-19 -8h-160q-11 0 -19 8t-8 20 v237q0 12 8 20t19 8h160q11 0 19 -8t8 -20v-237z" />
<glyph unicode="&#xe033;" d="M102 305v-95q0 -79 42 -146.5t112 -98.5q70 31 112 98.5t42 146.5v95q-81 12 -154 48q-73 -36 -154 -48zM256 415q-97 -55 -209 -60v-145q0 -104 58.5 -188t150.5 -117q92 33 150.5 117t58.5 188v145q-112 5 -209 60zM438 210q0 -92 -50 -167.5t-132 -107.5 q-82 32 -132 107.5t-50 167.5v119q96 10 182 54q86 -44 182 -54v-119z" />
<glyph unicode="&#xe034;" d="M346 339q-21 0 -33.5 -7.5t-12.5 -25.5v-292q0 -33 46 -33q21 0 33.5 7.5t12.5 25.5v292q0 33 -46 33zM167 339q-21 0 -33.5 -7.5t-12.5 -25.5v-292q0 -33 46 -33q21 0 33.5 7.5t12.5 25.5v292q0 33 -46 33z" />
<glyph unicode="&#xe035;" d="M398 173l-219 136q-12 8 -20.5 3t-8.5 -20v-264q0 -15 8.5 -20t20.5 3l219 136q8 5 8 13q0 3 -2 6.5t-4 5.5z" />
<glyph unicode="&#xe036;" d="M256 38v372l-60 -186h-196l158 -115l-60 -186z" />
<glyph unicode="&#xe037;" d="M512 224h-196l-60 186l-60 -186h-196l158 -115l-60 -186l158 115l158 -115l-60 186zM369 -14l-113 82v264l43 -132h139l-112 -82z" />
<glyph unicode="&#xe038;" d="M512 224h-196l-60 186l-60 -186h-196l158 -115l-60 -186l158 115l158 -115l-60 186z" />
<glyph unicode="&#xe039;" d="M512 217h-196l-60 186l-60 -186h-196l158 -114l-60 -186l158 114l158 -114l-60 186zM369 -21l-113 82l-113 -82l43 133l-112 81h139l43 133l43 -133h139l-112 -81z" />
<glyph unicode="&#xe03a;" d="M368 322q34 0 58 -24t24 -58t-24 -58v0l-170 -171l-170 171v0q-24 24 -24 58t24 58t58 24q28 0 51 -22l14 -17l49 -57l47 59l13 16q21 21 50 21zM368 384q-55 0 -96 -41h-1l-15 -20l-15 19h-1q-42 42 -96 42q-60 0 -102 -42t-42 -102t42 -102l191 -193q10 -9 23 -9t23 9 l191 193q42 42 42 102t-42 102t-102 42z" />
<glyph unicode="&#xe03b;" d="M368 384q-55 0 -96 -41h-1l-15 -20l-15 19h-1v0q-42 42 -96 42q-60 0 -102 -42t-42 -102t42 -102l191 -193q10 -9 23 -9t23 9l191 193q42 42 42 102t-42 102t-102 42z" />
<glyph unicode="&#xe03c;" d="M32 309.5q0 15.5 11 26.5t26 11h374q15 0 26 -11t11 -26.5t-11 -26.5t-26 -11h-374q-15 0 -26 11t-11 26.5zM443 197h-374q-15 0 -26 -11t-11 -26t11 -26t26 -11h374q15 0 26 11t11 26t-11 26t-26 11zM443 48h-374q-15 0 -26 -11t-11 -26.5t11 -26.5t26 -11h374 q15 0 26 11t11 26.5t-11 26.5t-26 11z" />
<glyph unicode="&#xe03d;" d="M405 150q16 0 27 11t11 26.5t-11 26.5t-27 11h-300q-16 0 -27 -11t-11 -26.5t11 -26.5t27 -11h300z" />
<glyph unicode="&#xe03e;" d="M293 150h112q16 0 27 11t11 26.5t-11 26.5t-27 11h-112v112q0 16 -11 27t-27 11t-27 -11t-11 -27v-112h-112q-16 0 -27 -11t-11 -26.5t11 -26.5t27 -11h112v-113q0 -15 11 -26t27 -11t27 11t11 26v113z" />
<glyph unicode="&#xe03f;" d="M256 416q-106 0 -181 -75t-75 -181t75 -181t181 -75t181 75t75 181t-75 181t-181 75zM302 128l-43 -43l-16 -16q-7 -6 -16 -6t-16 6t-7 15.5t7 16.5l58 59l-58 59q-7 6 -7 15.5t7 16t16 6.5t16 -7l59 -58l32 -32z" />
<glyph unicode="&#xe040;" d="M198 105l58 -58v-111h-75v152zM293 -64h75v190l-75 -75v-115zM69 -64h75v115l-75 -74v-41zM405 163v-227h74v304l-68 -71zM444 383l-73 -68l-98 -98l-74 74l-20 -20l-76 -76l-71 -70v-80l71 70l96 96l34 -34l40 -40l138 138l68 66v42h-35z" />
<glyph unicode="&#xe041;" d="M441 383h-244q-21 0 -32 -17l-132 -206v-85q53 0 92 -35t45 -87q1 -7 6 -11.5t13 -4.5h290v223v185q0 16 -11 27t-27 11zM142 215l72 113h210v-113h-282zM424 103h-113v30h113v-30z" />
<glyph unicode="&#xe042;" d="M32 272v112h112v-112h-112zM200 272v112h112v-112h-112zM368 384h112v-112h-112v112zM32 104v112h112v-112h-112zM200 104v112h112v-112h-112zM368 104v112h112v-112h-112zM32 -64v112h112v-112h-112zM200 -64v112h112v-112h-112zM368 -64v112h112v-112h-112z" />
<glyph unicode="&#xe043;" d="M499 295q-103 95 -243 95t-243 -95q-12 -12 -12.5 -29t11.5 -29t28 -12.5t28 11.5q80 73 188 73t188 -73q12 -11 28 -11t28 12t11.5 29t-12.5 29zM383 181q-55 47 -127 47t-127 -47q-13 -11 -14 -29t12 -30q11 -11 27 -12t28 10q32 27 74 27t74 -27q12 -11 28 -10t27 12 q13 12 12 30t-14 29zM256 66q-14 0 -23.5 -10t-9.5 -23q0 -4 1 -8q4 -20 24 -25q4 -1 7.5 -1t7.5 1q21 5 25 25q1 4 1 8q0 13 -9.5 23t-23.5 10z" />
<glyph unicode="&#xe044;" d="M256 416q-106 0 -180.5 -75t-74.5 -181t74.5 -180.5t180.5 -74.5t181 74.5t75 180.5t-75 181t-181 75zM320 138l-28 -30l-10 -11q-11 -11 -21.5 0t0.5 22l22 24h-96q-7 0 -11.5 5t-4.5 12.5t4.5 12.5t11.5 5h96l-22 23q-11 12 -0.5 23t21.5 0l38 -41l22 -23z" />
<glyph unicode="&#xe045;" d="M359 227l-62 66q-7 8 -17 8t-17 -7.5t-7 -18t7 -18.5l36 -38h-155q-10 0 -17.5 -8t-7.5 -19.5t7.5 -20t17.5 -8.5h155l-36 -38q-7 -8 -7 -18.5t7 -18t17 -7.5t17 8l17 18l45 48l34 36z" />
<glyph unicode="&#xe046;" d="M469 10l-3 8q-3 9 -11.5 13t-17.5 1l-17 -6l-10 94q-1 9 -7.5 15t-15.5 6h-135l-5 36h111q9 0 15.5 6.5t6.5 16t-6.5 16.5t-15.5 7h-116l-9 94q25 18 22 49q-2 22 -19.5 36.5t-40 12t-36.5 -20t-12 -39.5q4 -31 32 -44l23 -207q1 -8 6 -12.5t12 -4.5h139l8 -78l3 -26 q1 -11 10.5 -17t19.5 -3l25 9l29 9q9 3 13.5 11.5t1.5 17.5zM307 -22q-4 0 -7 -1t-4.5 -2t-5.5 -4t-7 -5q-31 -19 -68 -19q-53 0 -91.5 38.5t-38.5 92.5q0 58 43 96q1 2 6.5 6t8 6.5t4.5 7.5t0 11q-3 17 -20 17q-9 0 -24 -13q-61 -52 -61 -131q0 -72 51 -123t122 -51 q52 0 95 29q18 12 18 24q0 9 -6 15t-15 6z" />
<glyph unicode="&#xe047;" d="M409 94l-32 40l-59 -17v0l-118 -34l-37 -11l-69 -21l-24 -7l-19 -5v-30q0 -8 8 -8h385q8 0 8 8v147l-43 -12v-50zM512 214l-11 36l-49 -15v75q0 8 -8 8h-385q-8 0 -8 -8v-192l-50 -15l10 -36v-1l40 12l36 10l7 3l199 58l116 34l43 12l60 18v1zM94 275h315v-53l-28 -8 q0 14 -10.5 24t-24.5 10t-24 -10t-10 -24q0 -10 5 -18l-50 -15l-40 50q-5 6 -13 6t-13 -6l-73 -91l-34 -10v145z" />
<glyph unicode="&#xe048;" d="M512 141q-18 0 -31 12.5t-13 31t13 31.5t31 13v108h-104h-304h-104v-108q18 0 31 -13t13 -31.5t-13 -31t-31 -12.5v-108h104h304h104v108zM412 139q0 -21 -14.5 -35.5t-35.5 -14.5h-212q-21 0 -35.5 14.5t-14.5 35.5v92q0 20 14.5 35t35.5 15h212q21 0 35.5 -15t14.5 -35 v-92zM362 241h-212q-4 0 -7.5 -3t-3.5 -7v-92q0 -5 3.5 -8t7.5 -3h212q4 0 7.5 3t3.5 8v92q0 4 -3.5 7t-7.5 3z" />
<glyph unicode="&#xf000;" horiz-adv-x="0" d="M0 416l512 -512h-512v512z" />
</font>
</defs>
</svg>
