<?xml version="1.0" standalone="no"?>
<!DOCTYPE svg PUBLIC "-//W3C//DTD SVG 1.1//EN" "http://www.w3.org/Graphics/SVG/1.1/DTD/svg11.dtd" >
<svg xmlns="http://www.w3.org/2000/svg">
<metadata>
This is a custom SVG font generated by IcoMoon.
<iconset grid="16"></iconset>
</metadata>
<defs>
<font id="ISEcons" horiz-adv-x="512" >
<font-face units-per-em="512" ascent="480" descent="-32" />
<missing-glyph horiz-adv-x="512" />
<glyph class="hidden" unicode="&#xf000;" d="M0,480L 512 -32L0 -32 z" horiz-adv-x="0" />
<glyph unicode="&#x21;" d="M 273.735,44.949c-1.984-1.984-4.693-3.925-8.128-5.902c-3.47-1.984-6.649-2.958-9.607-2.958
	c-7.893,0-14.258,3.925-19.193,11.812L 35.947,371.356c-7.879,11.812-9.358,21.924-4.437,30.272c 4.942,8.377, 14.777,12.558, 29.54,12.558l 389.909,0 
	c 14.763,0, 24.597-4.174, 29.54-12.558c 4.914-8.348, 3.428-18.46-4.43-30.272L 275.207,47.9L 273.735,44.949z" />
<glyph unicode="&#x22;" d="M 336.612,305.5l 105.138-105.145l 39.68-39.68c 10.596-10.567, 15.865-23.808, 15.865-39.673s-5.611-29.077-16.86-39.673
	c-11.221-10.567-24.455-15.872-39.68-15.872c-15.189,0-28.082,5.305-38.677,15.872L 257.259,224.164L 112.441,81.337
	c-10.596-10.567-23.495-15.872-38.677-15.872c-15.196,0-28.459,5.305-39.68,15.872c-11.221,10.596-16.86,23.808-16.86,39.673s 5.269,29.106, 15.865,39.68
	l 144.818,144.818l 79.353,79.41L 336.612,305.5z" />
<glyph unicode="&#x23;" d="M 455.246,76.402c 10.041-10.041, 15.068-22.599, 15.068-37.668s-5.284-27.89-15.908-38.514
	c-10.567-10.596-23.701-15.9-39.346-15.9c-15.588,0-28.985,5.020-40.178,15.068L 255.993,116.594L 137.116-0.612
	c-11.143-10.048-24.54-15.068-40.185-15.068c-15.588,0-28.722,5.305-39.346,15.9c-10.567,10.624-15.9,23.445-15.9,38.514
	s 5.020,27.627, 15.068,37.668l 159.061,155.712c 11.193,10.055, 24.59,15.068, 40.178,15.068c 15.644,0, 29.035-5.013, 40.185-15.068L 455.246,76.402z
	 M 96.932,201.977c-15.588,0-28.722,5.312-39.346,15.908c-10.567,10.624-15.9,23.438-15.9,38.507c0,15.097, 5.020,28.181, 15.068,39.374
	L 215.815,449.813c 11.193,11.136, 24.59,16.74, 40.178,16.74c 15.644,0, 29.035-5.596, 40.185-16.74l 159.061-154.041
	c 10.041-11.193, 15.068-24.277, 15.068-39.374c0-15.068-5.284-27.883-15.908-38.507c-10.567-10.596-23.701-15.908-39.346-15.908
	c-15.588,0-28.985,5.596-40.178,16.74L 255.993,334.286L 137.116,218.724C 125.973,207.573, 112.576,201.977, 96.932,201.977z" />
<glyph unicode="&#x24;" d="M 30.108,277.796c-7.794,7.78-11.676,17.152-11.676,28.132c0,10.965, 3.883,20.331, 11.676,28.132
	c 7.765,7.78, 16.988,11.676, 27.598,11.676l 397.013,0 c 10.617,0, 19.804-3.897, 27.605-11.676c 7.758-7.794, 11.676-17.166, 11.676-28.132
	c0-10.98-3.918-20.352-11.676-28.132c-7.801-7.794-16.988-11.676-27.605-11.676L 57.707,266.119 C 47.097,266.119, 37.874,270.002, 30.108,277.796z
	 M 454.72,186.503L 57.707,186.503 c-10.617,0-19.84-3.897-27.598-11.676c-7.794-7.801-11.676-16.988-11.676-27.605c0-10.61, 3.883-19.819, 11.676-27.612
	c 7.765-7.765, 16.988-11.684, 27.598-11.684l 397.013,0 c 10.617,0, 19.804,3.918, 27.605,11.684c 7.758,7.794, 11.676,17.003, 11.676,27.612
	c0,10.617-3.918,19.804-11.676,27.605C 474.524,182.606, 465.337,186.503, 454.72,186.503z" />
<glyph unicode="&#x25;" d="M 209.749,339.676l-66.503,0 l0,37.902 l 66.503,0 l0,14.478 c0,3.954, 1.188,7.132, 3.556,9.5c 0.612,0.612, 1.252,1.145, 1.913,1.593
		c 0.036,0.043, 0.064,0.085, 0.1,0.128c 2.375,2.766, 5.532,4.16, 9.5,4.16l 38.599,0 L 263.417,409.692 c0,2.517-0.953,4.878-2.83,7.097
		c-1.899,2.204-4.117,3.314-6.635,3.314L 112.974,420.103 c-3.164,0-5.675-1.109-7.566-3.314c-0.028-0.028-0.057-0.071-0.078-0.1
		c-0.526-0.363-1.038-0.782-1.522-1.273c-1.892-1.892-2.837-4.423-2.837-7.566l0-68.174 L 29.611,339.676 c-3.164,0-5.682-1.109-7.573-3.314
		c-0.27-0.306-0.505-0.619-0.732-0.939c-0.299-0.284-0.59-0.576-0.868-0.903c-1.899-2.219-2.837-4.587-2.837-7.097L 17.010,107.854
		c0-3.143, 0.946-5.675, 2.837-7.573c 1.892-1.892, 4.096-2.823, 6.628-2.823L 112,97.458 L 112,205.973 c0,1.415, 0.256,2.766, 0.74,4.025L 112.74,304.612 
		c0,3.157, 1.188,6.123, 3.563,8.91c 0.348,0.412, 0.718,0.782, 1.088,1.131c 0.284,0.398, 0.59,0.789, 0.917,1.18
		c 2.375,2.766, 5.532,4.153, 9.5,4.153l 81.934,0 L 209.749,339.676L 209.749,339.676zM 492.252,296.505c-2.098,2.453-4.572,3.684-7.36,3.684l-75.662,0 L 409.23,378.062 c0,2.802-1.045,5.426-3.143,7.893
		c-2.112,2.446-4.587,3.684-7.374,3.684l-156.8,0 c-3.52,0-6.315-1.23-8.42-3.684c-0.036-0.043-0.057-0.078-0.092-0.114
		c-0.59-0.405-1.152-0.875-1.692-1.415c-2.105-2.098-3.157-4.914-3.157-8.42l0-75.826 l-79.36,0 c-3.52,0-6.315-1.23-8.412-3.684
		c-0.299-0.341-0.569-0.697-0.818-1.045c-0.327-0.306-0.654-0.64-0.967-1.003c-2.105-2.468-3.157-5.099-3.157-7.893l-0.654-244.196
		c0-3.506, 1.045-6.322, 3.157-8.434c 2.105-2.098, 4.558-3.143, 7.367-3.143l 101.355,0 l 144.889,0 l 92.942,0 c 2.795,0, 5.255,1.045, 7.36,3.143
		c 2.112,2.112, 3.15,4.914, 3.15,8.434L 495.403,288.612 C 495.41,291.406, 494.364,294.037, 492.252,296.505z M 362.197,300.188l-86.613,0 l0,42.148 l 86.613,0 
		L 362.197,300.188 z" />
<glyph unicode="&#x26;" d="M 490.247,338.126c-2.788,3.243-6.052,4.878-9.742,4.878L 380.444,343.004 L 380.444,445.988 c0,3.698-1.387,7.175-4.174,10.439
	c-2.788,3.243-6.052,4.871-9.742,4.871L 159.154,461.298 c-4.651,0-8.348-1.628-11.129-4.871c-0.043-0.050-0.078-0.1-0.121-0.149
	c-0.775-0.533-1.522-1.152-2.24-1.87c-2.788-2.788-4.174-6.507-4.174-11.136l0-100.281 L 36.53,342.99 c-4.651,0-8.348-1.628-11.136-4.878
	c-0.391-0.455-0.74-0.917-1.074-1.38c-0.441-0.412-0.868-0.846-1.28-1.33C 20.26,332.153, 18.866,328.676, 18.866,324.978L 17.998,2.012
	c0-4.629, 1.394-8.348, 4.174-11.129c 2.788-2.788, 6.023-4.181, 9.742-4.181l 134.052,0 l 191.623,0 l 122.916,0 c 3.698,0, 6.962,1.394, 9.742,4.181
	s 4.174,6.5, 4.174,11.129L 494.421,327.687 C 494.421,331.385, 493.035,334.862, 490.247,338.126z M 318.244,398.741l0-55.737 L 203.691,343.004 l0,55.737 L 318.244,398.741 z" />
<glyph unicode="&#x27;" d="M 492.651,308.814c-2.816,3.271-6.116,4.921-9.856,4.921L 381.618,313.735 L 381.618,391.659 c0,3.733-1.401,7.253-4.217,10.553
	c-2.816,3.271-6.116,4.928-9.856,4.928L 157.86,407.14 c-4.708,0-8.448-1.65-11.257-4.928c-0.043-0.050-0.078-0.1-0.114-0.149
	c-0.782-0.54-1.543-1.166-2.268-1.892c-2.816-2.816-4.217-6.571-4.217-11.257l0-75.179 L 33.863,313.735 c-4.708,0-8.448-1.65-11.257-4.921
	c-0.391-0.462-0.754-0.932-1.088-1.401c-0.441-0.42-0.875-0.853-1.294-1.344c-2.816-3.292-4.224-6.812-4.224-10.553l0-112.1 
	c-0.576-1.508-0.875-3.108-0.875-4.786l0-122.283 c0-4.686, 1.408-8.448, 4.217-11.257c 2.816-2.816, 6.094-4.224, 9.856-4.224l 135.545,0 l 193.771,0 
	l 124.288,0 c 3.733,0, 7.040,1.401, 9.856,4.224c 2.816,2.816, 4.217,6.571, 4.217,11.257L 496.875,298.254 C 496.868,301.995, 495.467,305.515, 492.651,308.814z
	 M 318.727,352.619l0-38.884 l-115.84,0 l0,38.884 L 318.727,352.619 z" />
<glyph unicode="&#x28;" d="M 447.886,187.1c-24.953-24.924-54.955-40.128-90.005-45.582c-35.072-5.454-67.392-0.363-97.017,15.211L 89.259-14.919l-72.654,71.111
		l 172.985,171.804c-15.573,30.393-20.836,62.926-15.772,97.6c 5.063,34.667, 20.068,64.868, 44.999,90.574c 31.943,31.161, 70.315,46.741, 115.143,46.741
		c 44.786,0, 82.972-15.772, 114.532-47.339c 31.531-31.559, 47.317-69.739, 47.317-114.539C 495.815,256.235, 479.836,218.261, 447.886,187.1z
		 M 382.4,350.727c-14.791,14.812-32.711,22.208-53.746,22.208c-21.049,0-38.962-7.41-53.774-22.208c-14.82-14.798-22.215-32.725-22.215-53.753
		c0-21.056, 7.41-38.969, 22.215-53.781c 14.798-14.812, 32.732-22.201, 53.774-22.201c 21.028,0, 38.955,7.41, 53.746,22.201
		c 14.834,14.798, 22.222,32.725, 22.222,53.781C 404.636,318.002, 397.234,335.929, 382.4,350.727z" />
<glyph unicode="&#x29;" d="M 339.641,376.057c 20.331,19.968, 32.967,43.399, 32.967,61.148c-0.007,10.66-4.324,17.28-7.943,20.964
		c-18.859,19.207-55.794,2.681-82.517-23.573c-14.514-14.258-25.074-30.279-29.938-44.729c-0.306,0.903-0.597,1.806-0.946,2.752
		c-5.141,13.668-15.054,28.409-27.911,41.479c-19.968,20.324-43.399,32.953-61.148,32.953c-10.645,0-17.266-4.316-20.949-7.936
		c-19.207-18.873-2.674-55.794, 23.573-82.524c 19.975-20.324, 44.444-26.972, 61.156-32.953c 19.684-7.047, 42.823-7.047, 72.192,4.516
		C 311.758,353.5, 326.564,363.214, 339.641,376.057z M 227.591,371.278c-0.299-0.071-0.818-0.156-1.621-0.156
		c-8.569,0-25.586,8.498-41.543,24.732c-20.338,20.715-25.237,39.182-23.851,43.556c 0.299,0.078, 0.818,0.156, 1.628,0.156
		c 8.576,0, 25.6-8.491, 41.536-24.732C 224.092,394.126, 228.971,375.652, 227.591,371.278z M 276.828,371.819c-0.078,0.299-0.156,0.818-0.156,1.628
		c0,8.569, 8.498,25.593, 24.732,41.543c 20.708,20.345, 39.175,25.237, 43.548,23.858c 0.071-0.299, 0.156-0.818, 0.156-1.628
		c0-8.562-8.491-25.593-24.732-41.536C 299.669,375.324, 281.195,370.439, 276.828,371.819zM 78.436,295.374L 78.436,180.907 l 152.818,0 L 231.253,336.597 L 119.666,336.597 C 96.889,336.597, 78.436,318.144, 78.436,295.374zM 389.959,336.597L 273.173,336.597 l0-155.705 l 158.016,0 L 431.189,295.374 C 431.189,318.144, 412.729,336.597, 389.959,336.597zM 78.436,25.074c0-22.777, 18.46-41.23, 41.23-41.23L 231.253-16.156 L 231.253,138.987 L 78.436,138.987 L 78.436,25.074 zM 273.173-16.149l 116.786,0 c 22.77,0, 41.23,18.453, 41.23,41.23L 431.189,138.987 L 273.173,138.987 L 273.173-16.149 z" />
<glyph unicode="&#x2a;" d="M 304.619,33.735c0-12.736-4.7-23.758-14.016-33.116c-9.351-9.308-20.814-14.009-34.389-14.009
	c-13.618,0-25.074,4.7-34.389,14.009c-9.351,9.358-14.009,20.38-14.009,33.116l0,143.929 L 65.159,177.664 c-13.611,0-25.074,4.693-34.382,14.009
	c-9.358,9.351-14.016,20.601-14.016,33.778c0,13.156, 4.658,24.398, 14.016,33.756c 9.308,9.33, 20.772,14.009, 34.382,14.009l 142.656,0 L 207.815,415.865 
	c0,13.575, 4.658,25.038, 14.009,34.389c 9.316,9.337, 20.779,14.009, 34.389,14.009c 13.575,0, 25.038-4.672, 34.389-14.009
	c 9.316-9.351, 14.016-20.814, 14.016-34.389L 304.619,273.209 l 142.649,0 c 13.575,0, 25.038-4.679, 34.396-14.009c 9.316-9.351, 14.009-20.601, 14.009-33.756
	c0-13.17-4.693-24.42-14.009-33.778c-9.351-9.316-20.821-14.009-34.396-14.009l-142.649,0 L 304.619,33.735 z" />
<glyph unicode="&#x2b;" d="M 63.73,177.323c-13.717,0-25.266,4.715-34.645,14.137c-9.429,9.401-14.116,20.729-14.116,34.005
	c0,13.255, 4.693,24.583, 14.116,34.005c 9.38,9.401, 20.928,14.116, 34.645,14.116l 384.967,0 c 13.675,0, 25.223-4.715, 34.645-14.116
	c 9.38-9.422, 14.108-20.75, 14.108-34.005c0-13.276-4.729-24.597-14.108-34.005c-9.422-9.422-20.971-14.137-34.645-14.137L 63.73,177.323 z" />
<glyph unicode="&#x2c;" d="M 106.965,26.19c-10.048-10.041-22.599-15.068-37.668-15.068s-27.89,5.284-38.514,15.908
	c-10.596,10.567-15.908,23.701-15.908,39.346c0,15.588, 5.028,28.985, 15.068,40.178l 117.205,118.884L 29.952,344.313
	c-10.048,11.143-15.068,24.54-15.068,40.185c0,15.588, 5.312,28.722, 15.908,39.346C 41.408,434.418, 54.229,439.751, 69.298,439.751s 27.627-5.020, 37.668-15.068
	l 155.712-159.061c 10.055-11.193, 15.068-24.59, 15.068-40.178c0-15.644-5.013-29.035-15.068-40.185L 106.965,26.19z M 232.548,384.498
	c0,15.588, 5.312,28.722, 15.908,39.346c 10.624,10.567, 23.438,15.9, 38.507,15.9c 15.097,0, 28.181-5.020, 39.374-15.068l 154.041-159.061
	c 11.136-11.193, 16.74-24.59, 16.74-40.178c0-15.644-5.596-29.035-16.74-40.185L 326.336,26.19c-11.193-10.041-24.277-15.068-39.374-15.068
	c-15.068,0-27.883,5.284-38.507,15.908c-10.596,10.567-15.908,23.701-15.908,39.346c0,15.588, 5.596,28.985, 16.74,40.178l 115.556,118.884l-115.556,118.876
	C 238.144,355.456, 232.548,368.853, 232.548,384.498z" />
<glyph unicode="&#x2d;" d="M 56.754,374.464c-10.048,10.048-15.068,22.599-15.068,37.668s 5.284,27.89, 15.908,38.514
	c 10.567,10.596, 23.701,15.908, 39.346,15.908c 15.595,0, 28.985-5.028, 40.185-15.068L 256,334.279L 374.876,451.484c 11.143,10.048, 24.54,15.068, 40.185,15.068
	c 15.588,0, 28.722-5.312, 39.346-15.908c 10.567-10.624, 15.9-23.438, 15.9-38.514s-5.020-27.627-15.068-37.668L 296.178,218.752
	c-11.193-10.048-24.59-15.068-40.178-15.068c-15.644,0-29.035,5.020-40.185,15.068L 56.754,374.464z M 415.061,248.889c 15.588,0, 28.722-5.312, 39.346-15.908
	c 10.567-10.624, 15.9-23.438, 15.9-38.514c0-15.097-5.020-28.174-15.068-39.374L 296.178,1.060c-11.193-11.143-24.59-16.74-40.178-16.74
	c-15.644,0-29.035,5.596-40.185,16.74L 56.754,155.1c-10.048,11.2-15.068,24.277-15.068,39.374c0,15.068, 5.284,27.89, 15.908,38.514
	c 10.567,10.596, 23.701,15.908, 39.346,15.908c 15.595,0, 28.985-5.596, 40.185-16.74L 256,116.594l 118.876,115.556
	C 386.020,243.292, 399.417,248.889, 415.061,248.889z" />
<glyph unicode="&#x2e;" d="M 75.719,44.942l 180.487,0 l0-60.587 L 75.719-15.644 c-16.846,0-31.161,5.916-42.916,17.664c-11.797,11.833-17.671,26.112-17.671,42.916
	L 15.132,225.451 l 60.587,0 L 75.719,44.942 z M 479.609,448.846c 11.748-11.79, 17.664-26.091, 17.664-42.916l0-241.088 c0-15.979-5.916-29.86-17.664-41.65
	c-11.797-11.755-26.112-17.664-42.916-17.664l-241.067,0 c-16.014,0-29.895,5.909-41.65,17.664c-11.797,11.79-17.671,25.671-17.671,41.65L 136.306,405.931 
	c0,16.825, 5.675,31.118, 17.038,42.916c 11.356,11.776, 25.444,17.671, 42.283,17.671l 241.067,0 C 453.497,466.517, 467.812,460.622, 479.609,448.846z M 436.693,405.931
	l-241.067,0 l0-241.088 l 241.067,0 L 436.693,405.931 z" />
<glyph unicode="&#x2f;" d="M 496.121,49.756L 497.067,47.858c-0.654-1.252-0.953-2.517-0.953-3.797c0-1.906-0.327-3.442-0.946-4.75l0-0.953 
	c-0.661-1.899-1.28-3.435-1.906-4.743l0-0.953 c-1.28-1.906-2.546-3.442-3.797-4.75l0-0.946 c-1.28-1.252-2.702-2.674-4.274-4.281
	c-1.607-1.543-3.655-2.965-6.172-4.274c-1.906-1.252-3.797-2.197-5.703-2.844l-0.946,0 c-1.906-0.597-3.797-0.953-5.703-0.953L 464.782,14.613 
	c-1.28-0.597-2.226-0.953-2.844-0.953L 49.813,13.66 c-0.654,0-1.273,0-1.899,0c-1.273,0.654-2.553,0.953-3.797,0.953
	c-1.273,0-2.553,0.178-3.797,0.469c-1.273,0.363-2.226,0.832-2.844,1.422c-0.654,0-1.607,0.363-2.852,0.953
	c-0.654,0-1.124,0.178-1.422,0.469c-0.327,0.363-0.654,0.476-0.946,0.476c-0.327,0-0.476,0.356-0.476,0.953
	c-0.654,0-1.607,0.654-2.844,1.899c-1.28,0.654-2.226,1.308-2.852,1.906l-1.899,1.899c-1.273,1.308-2.226,2.553-2.844,3.797
	c-6.976,10.148-8.249,20.594-3.797,31.332c 1.244,4.452, 3.47,8.548, 6.649,12.345L 226.439,417.266c 1.244,2.524, 2.844,5.056, 4.743,7.595
	c 0.626,0.626, 1.244,1.572, 1.899,2.852c 0.626,0, 0.953,0.149, 0.953,0.469c0,0.313, 0.299,0.476, 0.946,0.476
	c 5.696,5.696, 12.345,8.548, 19.94,8.548c 8.22,0, 15.495-2.844, 21.838-8.548c 1.906-1.273, 3.143-2.539, 3.797-3.797
	c 1.906-2.539, 3.47-5.070, 4.75-7.595l 201.316-343.765c 3.797-3.797, 6.322-8.548, 7.595-14.244l 0.953-1.906
	c 0.619-1.244, 0.946-2.517, 0.946-3.797C 496.121,52.309, 496.121,51.036, 496.121,49.756z M 286.265,208.356
	c 2.517,11.399, 4.416,24.213, 5.696,38.457c 1.244,14.244, 2.048,24.363, 2.375,30.386c 0.299,6.009, 0.469,10.596, 0.469,13.767
	c0,6.322-1.124,11.236-3.321,14.72c-2.226,3.47-5.703,6.009-10.453,7.595c-4.743,1.572-8.54,2.375-11.392,2.375
	c-2.852,0-7.452,0-13.774,0c-8.249,0-14.421-0.164-18.517-0.476c-4.124-0.327-8.398-2.539-12.821-6.649
	c-4.452-4.124-6.649-10.297-6.649-18.517c0-2.539,0-6.976,0-13.298c0-6.336, 0.775-16.469, 2.375-30.386c 1.572-13.931, 3.62-26.588, 6.172-37.988
	c 2.517-11.406, 6.322-21.525, 11.399-30.4c 5.042-8.839, 11.214-13.291, 18.517-13.291c 7.268,0, 13.447,4.452, 18.517,13.291
	C 279.908,186.823, 283.705,196.942, 286.265,208.356z M 290.055,98.66c0,9.202-3.321,17.095-9.963,23.744s-14.571,9.97-23.744,9.97
	c-9.195,0-17.088-3.328-23.737-9.97c-6.649-6.649-9.97-14.542-9.97-23.744c0-9.166, 3.321-17.088, 9.97-23.737
	c 6.649-6.649, 14.542-9.97, 23.737-9.97c 9.173,0, 17.095,3.328, 23.744,9.97S 290.055,89.493, 290.055,98.66z" />
<glyph unicode="&#x30;" d="M 494.876,225.451c0-66.14-23.253-122.446-69.732-168.946C 378.645,10.055, 322.347-13.227, 256.213-13.227
	c-66.155,0-122.46,23.282-168.932,69.732c-46.507,46.5-69.724,102.805-69.724,168.946c0,66.126, 23.225,122.446, 69.724,168.932
	C 133.76,440.853, 190.059,464.107, 256.213,464.107c 66.133,0, 122.432-23.253, 168.932-69.724C 471.623,347.89, 494.876,291.577, 494.876,225.451z M 291.776,352.732
	c0,8.732-3.122,16.526-9.351,23.403c-6.876,8.1-15.296,12.167-25.273,12.167c-10.005,0-18.105-3.129-24.334-9.358
	c-8.128-6.869-12.167-15.602-12.167-26.204c0-8.74, 3.1-16.54, 9.358-23.403c 6.841-8.114, 15.588-12.167, 26.204-12.167
	c 8.718,0, 16.526,3.115, 23.396,9.358C 287.716,333.383, 291.776,342.116, 291.776,352.732z M 286.165,237.618l-0.939,10.297
	c-0.647,9.358-3.74,16.526-9.358,21.525c-6.258,5.618-13.106,8.427-20.594,8.427c-4.999,0-9.998-1.259-14.969-3.748
	c-5.006-3.129-8.747-6.869-11.236-11.228c-2.517-5.618-3.74-14.037-3.74-25.273l0-133.852 l0-11.228 c 1.23-9.358, 4.679-16.526, 10.297-21.525
	c 5.618-4.971, 12.167-7.488, 19.655-7.488c 5.618,0, 10.588,1.287, 14.976,3.74c 5.611,3.157, 9.351,6.905, 11.228,11.228
	c 3.1,4.999, 4.679,13.426, 4.679,25.273L 286.165,237.618 z" />
<glyph unicode="&#x31;" d="M 494.884,225.451c0-66.14-23.253-122.446-69.732-168.953c-46.507-46.443-102.805-69.732-168.939-69.732
	s-122.46,23.282-168.939,69.732c-46.492,46.507-69.732,102.812-69.732,168.953c0,66.133, 23.239,122.446, 69.732,168.939
	C 133.753,440.86, 190.080,464.114, 256.213,464.114s 122.432-23.253, 168.939-69.732C 471.63,347.897, 494.884,291.577, 494.884,225.451z M 359.168,287.225
	c0,15.588-3.122,29.319-9.351,41.18c-8.747,16.846-21.852,29.952-39.31,39.31c-16.846,8.732-34.951,13.106-54.286,13.106
	c-27.463,0-50.866-8.747-70.194-26.212c-16.846-14.364-25.273-30.272-25.273-47.73c0-8.747, 2.809-15.908, 8.427-21.525
	c 5.618-6.244, 13.099-9.358, 22.464-9.358c 6.229,0, 11.847,1.55, 16.846,4.679c 3.129,2.489, 7.168,7.161, 12.167,14.037
	c 9.97,13.106, 20.914,19.655, 32.754,19.655c 7.488,0, 14.364-1.877, 20.594-5.618c 8.1-4.999, 12.167-12.793, 12.167-23.403
	c0-18.105-12.494-29.333-37.44-33.692c-5.006-0.626-8.747-1.259-11.236-1.87c-4.359-1.259-8.1-3.74-11.236-7.488
	c-3.74-3.74-5.618-9.991-5.618-18.716l0-20.601 c0-6.229, 0.32-9.97, 0.939-11.236c 0.612-10.581, 4.060-18.716, 10.297-24.334
	c 6.229-5.611, 13.426-8.427, 21.525-8.427c 5.618,0, 11.236,1.586, 16.853,4.679c 4.999,3.129, 8.74,7.196, 11.228,12.167
	c 3.129,5.618, 4.679,12.814, 4.679,21.525c0,0.647,0,1.877,0,3.74c 17.458,3.755, 32.114,10.617, 43.989,20.608
	C 349.483,238.549, 359.168,260.388, 359.168,287.225z M 288.974,107.506c0,9.351-3.122,17.486-9.358,24.334c-6.869,8.135-15.58,12.167-26.204,12.167
	c-9.358,0-17.465-3.108-24.334-9.358c-8.1-7.488-12.167-16.526-12.167-27.136c0-9.358, 3.129-17.465, 9.358-24.341
	c 6.876-8.071, 15.915-12.167, 27.143-12.167c 9.358,0, 17.465,3.157, 24.334,9.358C 285.227,87.851, 288.974,96.917, 288.974,107.506z" />
<glyph unicode="&#x32;" d="M 475.456,94.372c 12.103-12.046, 18.133-26.631, 18.133-43.684c0-17.003-6.030-31.573-18.133-43.691
	c-12.103-12.046-26.631-18.133-43.684-18.133c-17.052,0-31.58,6.080-43.691,18.133L 256.213,138.88L 124.338,6.997
	c-12.11-12.046-26.631-18.133-43.684-18.133s-31.602,6.080-43.684,18.133c-12.11,12.11-18.133,26.688-18.133,43.691c0,17.045, 6.023,31.63, 18.133,43.684
	l 131.876,131.904L 36.971,356.501c-12.11,12.082-18.133,26.631-18.133,43.684c0,17.024, 6.023,31.573, 18.133,43.684c 12.082,12.082, 26.631,18.133, 43.684,18.133
	s 31.573-6.052, 43.684-18.133L 256.213,313.636L 388.089,443.868c 12.103,12.082, 26.631,18.133, 43.691,18.133c 17.045,0, 31.573-6.052, 43.684-18.133
	c 12.103-12.11, 18.133-26.66, 18.133-43.684c0-17.052-6.030-31.602-18.133-43.684L 343.58,226.268L 475.456,94.372z" />
<glyph unicode="&#x33;" d="M 177.906,144.868L 72.761,250.012l-39.68,39.673c-10.603,10.574-15.872,23.808-15.872,39.68
	c0,15.872, 5.611,29.077, 16.86,39.68c 11.221,10.567, 24.455,15.872, 39.68,15.872c 15.189,0, 28.082-5.305, 38.684-15.872l 144.818-142.834l 144.818,142.834
	c 10.596,10.567, 23.495,15.872, 38.677,15.872c 15.196,0, 28.459-5.305, 39.68-15.872c 11.221-10.603, 16.86-23.808, 16.86-39.68
	c0-15.865-5.269-29.106-15.865-39.68L 336.612,144.868L 257.259,65.458L 177.906,144.868z" />
<glyph unicode="&#x34;" d="M 493.988,225.451c0-65.643-23.218-121.692-69.66-168.128c-46.436-46.436-102.485-69.66-168.114-69.66
	s-121.671,23.225-168.114,69.66S 18.439,159.808, 18.439,225.451c0,65.628, 23.218,121.671, 69.66,168.114S 190.592,463.225, 256.213,463.225
	s 121.671-23.218, 168.114-69.66C 470.77,347.122, 493.988,291.072, 493.988,225.451z M 328.661,225.451l-29.724,29.724l-54.798,53.874
	c-4.324,4.324-9.287,6.5-14.862,6.5s-10.539-2.020-14.862-6.037c-4.324-4.032-6.507-8.981-6.507-14.862
	c0-5.888, 2.176-10.681, 6.507-14.393l 53.874-54.798l-53.874-54.812c-4.324-4.316-6.507-9.429-6.507-15.324c0-5.86, 2.176-10.681, 6.507-14.393
	c 4.324-3.712, 9.287-5.568, 14.862-5.568s 10.532,1.856, 14.862,5.568l 14.855,14.862l 39.936,39.936L 328.661,225.451z" />
<glyph unicode="&#x35;" d="M 431.047,162.396L 345.728,77.049l-32.455-31.531c-8.661-8.64-19.15-12.985-31.531-12.985s-23.040,4.345-31.993,12.985
	c-8.953,8.697-13.447,19.186-13.447,31.531c0,12.373, 4.316,23.189, 12.985,32.455l 73.266,71.438L 65.671,180.942 c-12.373,0-23.040,4.288-31.993,12.978
	c-8.967,8.64-13.447,19.143-13.447,31.516c0,12.359, 4.48,22.862, 13.447,31.531c 8.953,8.647, 19.62,12.985, 31.993,12.985l 256.882,0 L 249.287,341.362
	c-8.661,9.273-12.985,20.082-12.985,32.455c0,12.359, 4.494,22.862, 13.447,31.531c 8.953,8.647, 19.62,12.985, 31.993,12.985
	s 22.869-4.331, 31.531-12.985L 431.047,288.498l 63.986-63.061L 431.047,162.396z" />
<glyph unicode="&#x36;" d="M 337.884,146.66L 232.37,42.638l-38.642-38.642c-10.916-10.866-24.007-16.348-39.381-16.348
	c-15.374,0-28.466,5.198-39.381,15.602s-16.348,23.31-16.348,38.642c0,15.367, 5.433,28.516, 16.348,39.374l 142.663,144.178L 114.965,369.6
	c-10.916,10.894-16.348,24.007-16.348,39.381c0,15.353, 5.433,28.238, 16.348,38.642s 24.007,15.602, 39.381,15.602c 15.374,0, 28.466-5.461, 39.381-16.348
	L 337.884,304.213l 78.763-78.763L 337.884,146.66z" />
<glyph unicode="&#x37;" d="M 493.988,225.451c0-65.643-23.218-121.692-69.66-168.128c-46.436-46.436-102.485-69.66-168.114-69.66
	s-121.671,23.225-168.114,69.66S 18.439,159.808, 18.439,225.451c0,65.628, 23.218,121.671, 69.66,168.114S 190.592,463.225, 256.213,463.225
	s 121.671-23.218, 168.114-69.66C 470.77,347.122, 493.988,291.072, 493.988,225.451z M 374.172,313.685c0,8.043-2.93,15.004-8.825,20.9
	c-5.888,5.881-12.857,8.825-20.892,8.825L 167.979,343.41 c-8.057,0-15.019-2.944-20.9-8.825c-5.895-5.895-8.825-12.857-8.825-20.9l0-176.491 
	c0-8.036, 2.93-15.004, 8.825-20.892c 5.881-5.86, 12.843-8.825, 20.9-8.825l 176.469,0 c 8.043,0, 15.004,2.965, 20.892,8.825
	c 5.895,5.888, 8.825,12.864, 8.825,20.892L 374.165,313.685 z M 167.979,270.030l 176.469,0 l0-132.836 L 167.979,137.195 L 167.979,270.030 z M 271.076,152.057l 58.517,0 l0,58.532 L 271.076,152.057
	z" />
<glyph unicode="&#x38;" d="M 477.696,447.14c 11.62-11.62, 17.415-25.579, 17.415-41.892l0-359.616 c0-16.299-5.796-30.244-17.415-41.892
	c-11.627-11.591-25.572-17.415-41.899-17.415L 76.196-13.675 c-16.327,0-30.286,5.824-41.892,17.415c-11.62,11.648-17.415,25.593-17.415,41.892L 16.889,405.248 
	c0,16.313, 5.796,30.272, 17.415,41.892c 11.605,11.605, 25.564,17.415, 41.892,17.415l 359.602,0 C 452.124,464.555, 466.069,458.745, 477.696,447.14z
	 M 435.797,314.88L 76.196,314.88 l0-269.248 l 359.602,0 L 435.797,314.88 z M 405.682,75.755L 286.123,75.755 l 119.552,119.552L 405.675,75.755 z" />
<glyph unicode="&#x39;" d="M 495.182,225.451c0-65.87-23.374-122.14-70.087-168.889c-46.713-46.684-103.019-70.087-168.875-70.087
	c-65.856,0-122.162,23.403-168.875,70.087C 40.604,103.303, 17.252,159.573, 17.252,225.451c0,65.856, 23.36,122.14, 70.087,168.875
	c 46.713,46.72, 103.019,70.087, 168.875,70.087c 65.856,0, 122.162-23.374, 168.875-70.087C 471.808,347.591, 495.182,291.307, 495.182,225.451z
	 M 434.972,225.451c0,49.536-17.408,91.726-52.217,126.535c-34.816,34.809-76.999,52.217-126.542,52.217c-49.536,0-91.726-17.408-126.535-52.217
	s-52.217-76.999-52.217-126.535c0-49.55, 17.408-91.748, 52.217-126.549c 34.809-34.816, 76.999-52.217, 126.535-52.217
	c 49.543,0, 91.726,17.401, 126.542,52.217C 417.564,133.703, 434.972,175.893, 434.972,225.451z M 415.218,225.451L 296.668,200.036l 29.17-44.224
	l-44.217,29.17l-25.401-118.542l-24.462,116.658l-45.156-27.285l 24.455,41.394l-113.835,28.238l 113.835,28.224l-24.455,41.394l 41.394-24.462l 28.224,113.835
	l 29.17-115.719l 40.448,26.347l-29.17-44.217L 415.218,225.451z M 284.437,225.451c0,8.142-2.674,14.891-7.993,20.224
	c-5.326,5.326-12.082,8-20.231,8c-8.142,0-14.905-2.674-20.224-8c-5.326-5.333-8-12.082-8-20.224
	c0-8.156, 2.674-14.905, 8-20.224c 5.319-5.34, 12.082-8.014, 20.224-8.014c 8.149,0, 14.905,2.674, 20.231,8.014
	C 281.764,210.539, 284.437,217.294, 284.437,225.451z" />
<glyph unicode="&#x3a;" d="M 494.876,225.451c0-65.884-23.303-122.14-69.916-168.754c-46.613-46.62-102.876-69.924-168.74-69.924
	c-65.87,0-122.126,23.303-168.74,69.924c-46.613,46.613-69.924,102.869-69.924,168.754c0,65.87, 23.303,122.126, 69.924,168.74
	S 190.343,464.114, 256.213,464.114c 65.87,0, 122.133-23.303, 168.74-69.924S 494.876,291.321, 494.876,225.451z M 350.372,257.145
	c0,25.479-9.173,47.388-27.499,65.728c-18.325,18.325-40.555,27.506-66.66,27.506s-48.334-9.18-66.66-27.506
	c-18.325-18.34-27.506-40.249-27.506-65.728c0-1.863,0-3.42,0-4.665l 0.932-0.932c 0.612-14.308, 4.345-29.369, 11.186-45.22
	c 6.848-15.858, 14.308-29.518, 22.372-41.038c 8.071-11.477, 17.394-22.841, 27.968-34.027s 17.863-18.645, 21.909-22.372s 7.31-6.521, 9.785-8.391
	c0-0.612, 3.115,2.041, 9.323,7.922c 6.208,5.916, 13.838,13.838, 22.848,23.78c 9.003,9.956, 18.027,20.971, 27.036,33.088
	c 9.003,12.124, 16.775,25.956, 23.303,41.508c 6.528,15.524, 10.112,30.443, 10.724,44.743c0,0.612, 0.32,0.932, 0.932,0.932
	C 350.372,253.724, 350.372,255.282, 350.372,257.145z M 287.908,256.683c0-8.391-3.115-15.701-9.323-21.909c-6.208-6.222-13.668-9.323-22.372-9.323
	c-8.711,0-16.171,3.108-22.372,9.323c-6.208,6.208-9.323,13.518-9.323,21.909c0,8.391, 3.115,15.687, 9.323,21.909
	c 6.208,6.208, 13.66,9.323, 22.372,9.323c 8.711,0, 16.164-3.115, 22.372-9.323C 284.8,272.37, 287.908,265.067, 287.908,256.683z" />
<glyph unicode="&#x3b;" d="M 432.334,324.572c-6.464,30.094-20.43,56.981-42.012,80.612c-2.055,2.247-4.181,4.473-6.372,6.663
	c-0.135,0.128-0.277,0.256-0.412,0.384c-33.906,33.735-74.837,51.086-122.809,52.117c-0.292,0.057-0.491,0.1-0.491,0.1
	c-1.273,0-2.603,0-4.025,0s-2.752,0-4.025,0c0,0-0.199-0.043-0.491-0.1C 203.641,463.317, 162.631,445.902, 128.683,412.039
	c-0.064-0.064-0.142-0.128-0.206-0.192c-1.166-1.173-2.268-2.368-3.399-3.556c-26.425-27.712-42.233-59.968-47.353-96.796
	c-1.23-8.86-1.849-17.991-1.849-27.378c0-2.866,0-5.739,0-8.59l0-1.074 c 0.021-0.434, 0.078-0.875, 0.107-1.308
	c 1.557-27.506, 8.69-56.050, 21.369-85.653c 12.878-30.059, 27.904-56.725, 45.077-79.936c 17.18-23.275, 34.517-44.544, 52.060-63.865
	c 17.508-19.321, 32-34.183, 43.47-44.544c 0.398-0.363, 0.74-0.668, 1.124-1.017c 3.925-3.705, 7.481-6.869, 10.681-9.522
	c 3.84-3.321, 6.023-5.035, 6.443-5.035c 0.42,0, 2.61,1.721, 6.457,5.049c 3.228,2.674, 6.805,5.86, 10.759,9.593
	c 0.356,0.32, 0.668,0.597, 1.031,0.932c 11.47,10.361, 25.97,25.223, 43.47,44.544c 17.55,19.328, 34.887,40.59, 52.068,63.865
	c 17.166,23.218, 32.192,49.884, 45.077,79.936c 12.487,29.156, 19.57,57.273, 21.269,84.388c 0.057,0.853, 0.156,1.714, 0.199,2.567l0,1.074 
	c0,2.852,0,5.717,0,8.59C 436.551,298.204, 435.115,311.673, 432.334,324.572z M 298.61,241.714C 286.805,229.909, 272.654,224, 256.213,224
	s-30.592,5.902-42.396,17.714c-2.951,2.951-5.54,6.052-7.751,9.287c-5.532,8.107-8.761,17.116-9.685,27.044
	c-0.185,1.984-0.277,4.004-0.277,6.066c0,2.055, 0.092,4.075, 0.277,6.059c 0.924,9.927, 4.153,18.937, 9.685,27.051
	c 2.212,3.243, 4.8,6.343, 7.751,9.294c 11.804,11.804, 25.956,17.707, 42.396,17.707s 30.592-5.902, 42.396-17.707c 10.332-10.332, 16.149-22.45, 17.436-36.338
	c 0.185-1.984, 0.277-4.004, 0.277-6.059c0-2.062-0.092-4.082-0.277-6.066C 314.759,264.149, 308.942,252.046, 298.61,241.714z" />
<glyph unicode="&#x3c;" d="M 495.104,335.915L 196.964,37.788L 17.323,216.469L 92.565,290.773l 104.398-104.384L 419.868,410.219L 495.104,335.915z" />
<glyph unicode="&#x3d;" d="M 487.68,254.798c 4.345-4.985, 6.535-10.894, 6.535-17.735l0-26.133 c0-6.869-2.19-12.764-6.535-17.721
	c-4.373-5.013-9.97-7.467-16.796-7.467l-26.133-6.535c-4.985-19.947-13.070-38.905-24.27-56.932l 21.476-33.6
	c 4.956-4.373, 7.467-9.977, 7.467-16.804c0-6.855-2.51-12.452-7.467-16.796l-16.804-16.796c-4.373-4.985-9.97-7.467-16.796-7.467
	c-6.855,0-12.452,2.482-16.796,7.467l-33.6,21.468c-18.055-11.2-37.042-18.987-56.939-23.332l-6.535-27.065c0-6.855-2.51-12.459-7.467-16.804
	c-4.985-4.373-10.908-6.528-17.728-6.528l-26.133,0 c-6.855,0-12.772,2.155-17.735,6.528c-4.992,4.345-7.467,9.948-7.467,16.804L 211.413,36.409
	c-19.925,4.345-38.912,12.132-56.932,23.332l-33.6-21.468c-4.985-4.985-10.731-7.467-17.266-7.467c-6.528,0-12.309,2.482-17.266,7.467
	L 69.547,55.076c-4.373,4.345-6.535,9.941-6.535,16.796c0,6.827, 2.162,12.43, 6.535,16.804l 21.468,34.524
	c-10.588,17.387-18.375,36.053-23.332,56L 41.55,185.742c-6.855,0-12.452,2.453-16.796,7.467c-4.373,4.956-6.535,10.852-6.535,17.721l0,26.133 
	c0,6.841, 2.162,12.743, 6.535,17.735c 4.345,4.978, 9.941,7.467, 16.796,7.467l 26.133,6.528c 4.956,19.904, 13.070,38.884, 24.27,56.932l-22.4,33.6
	c-4.373,4.971-6.535,10.731-6.535,17.266c0,6.528, 2.162,12.281, 6.535,17.266l 16.796,16.796c 4.956,4.345, 10.738,6.535, 17.266,6.535
	c 6.535,0, 12.281-2.19, 17.266-6.535l 33.6-22.4c 18.027,11.2, 37.013,19.278, 56.932,24.27l 6.528,26.133c0,6.841, 2.482,12.444, 7.467,16.796
	c 4.956,4.345, 10.88,6.535, 17.735,6.535l 26.133,0 c 6.82,0, 12.743-2.19, 17.728-6.535c 4.956-4.359, 7.467-9.956, 7.467-16.796l 6.535-26.133
	c 19.897-4.992, 38.564-12.757, 56-23.332l 34.532,21.468c 4.345,4.345, 9.941,6.535, 16.796,6.535c 6.827,0, 12.423-2.19, 16.796-6.535l 16.804-16.796
	c 4.956-4.992, 7.467-10.738, 7.467-17.266c0-6.535-2.51-12.295-7.467-17.266l-21.476-33.6c 11.2-17.429, 19.285-36.402, 24.27-56.932l 26.133-6.528
	C 477.71,262.265, 483.307,259.769, 487.68,254.798z M 315.954,224c0,16.171-5.924,30.172-17.735,41.998c-11.84,11.812-25.842,17.735-41.998,17.735
	c-16.185,0-30.187-5.924-41.998-17.735C 202.375,254.172, 196.48,240.171, 196.48,224c0-16.206, 5.895-30.208, 17.735-41.984
	c 11.812-11.847, 25.813-17.735, 41.998-17.735c 16.156,0, 30.158,5.888, 41.998,17.735C 310.030,193.792, 315.954,207.794, 315.954,224z" />
<glyph unicode="&#x3e;" d="M 493.518,275.186l-55.78-16.732l-39.972-11.157l-107.84-31.609l-184.996-53.931l-6.507-2.795l-33.465-9.301
	l-37.184-11.122l0,0.932 l-9.294,33.436l 46.485,13.945L 64.967,365.355 c0,4.949, 2.468,7.438, 7.438,7.438l 357.909,0 c 4.935,0, 7.438-2.489, 7.438-7.438
	l0-69.724 l 45.547,13.945l 10.226-33.472L 493.525,275.186 z M 397.774,211.044l 39.972,11.15l0-136.64 c0-4.999-2.503-7.438-7.438-7.438L 72.398,78.116 
	c-4.971,0-7.438,2.439-7.438,7.438l0,27.89 l 17.664,4.644l 22.308,6.507l 64.149,19.52l 34.396,10.204l 109.696,31.602l 54.848,15.808l 29.753-37.184
	L 397.774,211.044 z M 104.932,198.009l 31.609,9.316l 67.861,84.594c 3.079,3.719, 7.118,5.575, 12.082,5.575c 4.942,0, 8.981-1.856, 12.089-5.575l 37.184-46.485
	l 46.478,13.945c-3.115,4.956-4.644,10.532-4.644,16.732c0,8.676, 3.079,16.114, 9.294,22.315c 6.187,6.187, 13.625,9.294, 22.315,9.294
	c 8.661,0, 16.27-3.108, 22.777-9.294c 6.507-6.201, 9.756-13.639, 9.756-22.315l 26.034,7.438l0,49.273 l-292.836,0 L 104.932,198.009 z" />
<glyph unicode="&#x3f;" d="M 318.187,47.73c 3.762-3.755, 5.646-8.455, 5.646-14.101c0-7.524-5.646-15.047-16.932-22.571
	c-26.98-18.197-56.747-27.278-89.344-27.278c-44.53,0-82.766,15.986-114.738,47.964s-47.964,70.535-47.964,115.684
	c0,49.493, 19.108,90.581, 57.365,123.186c 9.408,8.142, 16.932,12.231, 22.571,12.231c 10.638,0, 16.932-5.333, 18.809-15.993
	c 1.237-3.762, 1.237-7.218,0-10.347c-1.266-3.143-2.674-5.497-4.231-7.054c-1.586-1.572-4.082-3.612-7.524-6.108
	c-3.47-2.517-5.497-4.395-6.116-5.646c-26.98-23.836-40.441-53.945-40.441-90.268c0-33.856, 12.046-62.898, 36.21-86.99
	c 24.128-24.156, 52.814-36.21, 86.059-36.21c 23.189,0, 44.494,5.938, 63.957,17.87c 1.884,1.237, 4.053,2.816, 6.585,4.7
	c 2.496,1.884, 4.231,3.115, 5.177,3.762c 0.939,0.619, 2.347,1.23, 4.231,1.884c 1.884,0.612, 4.053,0.939, 6.585,0.939
	C 309.732,53.376, 314.432,51.492, 318.187,47.73z M 455.033,67.015c-2.823-5.355-7.054-8.939-12.7-10.816l-27.271-8.462l-23.516-8.455
	c-6.293-1.884-12.402-0.946-18.34,2.816c-5.966,3.762-9.259,9.081-9.877,15.986l-2.816,24.448l-7.531,73.358L 222.258,155.89 
	c-4.409,0-8.171,1.408-11.285,4.231c-3.143,2.823-5.028,6.699-5.639,11.755l-21.632,194.667c-17.579,8.142-27.598,21.938-30.094,41.38
	c-1.266,13.781, 2.503,26.176, 11.285,37.148c 8.754,10.965, 20.217,17.237, 34.325,18.809c 14.108,1.557, 26.631-2.204, 37.618-11.285
	c 10.965-9.095, 17.074-20.544, 18.34-34.325c 1.884-19.442-5.028-34.802-20.693-46.087l 8.462-88.405l 109.099,0 c 5.646,0, 10.496-2.204, 14.578-6.585
	c 4.053-4.395, 6.108-9.572, 6.108-15.524c0-5.966-2.055-10.972-6.108-15.047c-4.082-4.089-8.932-6.116-14.578-6.116L 247.652,240.505 l 4.708-33.842l 126.962,0 
	c 5.646,0, 10.496-1.884, 14.585-5.639c 4.053-3.762, 6.4-8.462, 7.047-14.108l 9.408-88.405l 15.986,5.639c 5.639,1.884, 11.108,1.529, 16.455-0.939
	c 5.319-2.524, 8.939-6.585, 10.816-12.231l 2.823-7.524C 458.325,77.824, 457.856,72.334, 455.033,67.015z" />
<glyph unicode="&#x40;" d="M 495.168,290.923c 0.292-10.617-3.278-19.655-10.766-27.143c-7.495-7.488-16.235-11.236-26.219-11.236
	c-9.998,0-18.724,3.42-26.212,10.297c-49.927,45.547-108.587,68.331-175.979,68.331s-126.073-22.791-175.979-68.331
	c-7.488-7.488-16.235-11.086-26.212-10.766c-10.005,0.306-18.724,4.21-26.212,11.698c-7.488,7.488-11.086,16.526-10.766,27.143
	c 0.292,10.603, 4.21,19.662, 11.705,27.143c 64.27,59.278, 140.089,88.924, 227.463,88.924c 87.346,0, 163.164-29.646, 227.463-88.924
	C 490.951,310.585, 494.841,301.525, 495.168,290.923z M 387.989,184.228c 0.612-11.236-3.129-20.594-11.236-28.082c-6.876-6.905-15.296-10.645-25.273-11.228
	c-10.005-0.647-18.724,2.453-26.212,9.358c-19.982,16.846-43.065,25.273-69.269,25.273s-49.323-8.427-69.269-25.273
	c-7.488-6.912-16.235-10.005-26.212-9.358c-10.005,0.583-18.425,4.324-25.273,11.228c-8.135,7.488-11.876,16.846-11.236,28.082
	c 0.612,11.228, 4.971,20.245, 13.106,27.129c 34.311,29.326, 73.948,43.996, 118.876,43.996s 84.544-14.67, 118.884-43.996
	C 382.983,204.473, 387.342,195.456, 387.989,184.228z M 286.891,72.839c0-2.517-0.32-5.035-0.939-7.495c-2.517-12.523-10.29-20.295-23.396-23.403
	c-2.517-0.64-4.857-0.932-7.026-0.932c-2.19,0-4.53,0.292-7.019,0.932c-12.487,3.108-19.975,10.88-22.464,23.403
	c-0.64,2.46-0.932,4.971-0.932,7.495c0,8.071, 2.958,15.26, 8.889,21.525c 5.909,6.201, 13.248,9.358, 21.995,9.358
	c 8.718,0, 16.064-3.157, 22.002-9.358C 283.911,88.107, 286.891,80.91, 286.891,72.839z" />
<glyph unicode="&#x41;" d="M 21.717,396.096c 5.916,18.752, 17.024,33.429, 33.287,44.068l 24.377,17.813c 8.121,4.999, 16.704,6.706, 25.785,5.156
	c 9.052-1.572, 16.405-6.094, 22.030-13.596l 60.004-81.572c 7.502-10.005, 11.541-21.419, 12.188-34.219c 0.612-12.821-2.197-24.846-8.441-36.096
	l-30.94-51.563c 15.616-21.888, 33.429-43.435, 53.44-64.711c 19.982-19.371, 41.252-36.892, 63.758-52.473l 51.57,30.912
	c 11.25,6.272, 23.26,9.081, 36.089,8.441c 12.807-0.619, 24.199-4.686, 34.219-12.188l 81.572-59.044c 7.502-5.625, 12.011-13.127, 13.596-22.5
	c 1.557-9.372-0.171-17.813-5.163-25.316l-17.813-25.316c-10.631-15.644-25.166-26.432-43.598-32.348c-18.46-5.952-37.035-5.803-55.787,0.462
	c-83.15,30.002-155.022,74.069-215.644,132.203C 97.486,184.832, 53.127,257.010, 23.125,340.779C 16.27,358.898, 15.801,377.344, 21.717,396.096z" />
<glyph unicode="&#x42;" d="M 456.668,215.182c-19.925-19.904-43.868-32.043-71.865-36.416c-28.004-4.338-53.838-0.292-77.468,12.139L 131.868,15.467
	L 17.067,129.33l 38.265,38.244l 56.932-56.91l 19.598,18.667l-56.932,56.91l 37.333,38.279l 57.863-56.946l 80.27,80.277
	c-12.452,24.27-16.654,50.24-12.601,77.931c 4.025,27.684, 16.014,51.797, 35.94,72.334c 25.486,24.882, 56.149,37.333, 91.932,37.333
	c 35.755,0, 66.261-12.601, 91.463-37.796c 25.202-25.202, 37.796-55.694, 37.796-91.47C 494.933,270.393, 482.162,240.057, 456.668,215.182z M 404.402,345.849
	c-11.847,11.812-26.14,17.735-42.937,17.735s-31.118-5.924-42.93-17.735c-11.84-11.826-17.735-26.133-17.735-42.937
	c0-16.796, 5.895-31.118, 17.735-42.93c 11.812-11.833, 26.133-17.735, 42.93-17.735s 31.090,5.909, 42.937,17.735
	c 11.812,11.812, 17.728,26.133, 17.728,42.93C 422.13,319.716, 416.213,334.023, 404.402,345.849z" />
<glyph unicode="&#x43;" d="M 30.108,356.018c-7.794,7.78-11.676,17.152-11.676,28.132c0,10.965, 3.883,20.331, 11.676,28.132
	c 7.765,7.78, 16.988,11.676, 27.598,11.676l 397.013,0 c 10.617,0, 19.804-3.897, 27.605-11.676c 7.758-7.794, 11.676-17.166, 11.676-28.132
	c0-10.98-3.918-20.352-11.676-28.132c-7.801-7.794-16.988-11.676-27.605-11.676L 57.707,344.341 C 47.097,344.341, 37.874,348.224, 30.108,356.018z
	 M 454.72,264.725L 57.707,264.725 c-10.617,0-19.84-3.897-27.598-11.676c-7.794-7.794-11.676-16.988-11.676-27.598s 3.883-19.826, 11.676-27.612
	c 7.765-7.765, 16.988-11.684, 27.598-11.684l 397.013,0 c 10.617,0, 19.804,3.918, 27.605,11.684c 7.758,7.794, 11.676,17.003, 11.676,27.612
	s-3.918,19.804-11.676,27.598C 474.524,260.828, 465.337,264.725, 454.72,264.725z M 454.72,106.567L 57.707,106.567 c-10.617,0-19.84-3.911-27.598-11.676
	c-7.794-7.829-11.676-17.188-11.676-28.132c0-11.015, 3.883-20.366, 11.676-28.132c 7.765-7.794, 16.988-11.676, 27.598-11.676l 397.013,0 
	c 10.617,0, 19.804,3.883, 27.605,11.676c 7.758,7.765, 11.676,17.116, 11.676,28.132c0,10.944-3.918,20.302-11.676,28.132
	C 474.524,102.663, 465.337,106.567, 454.72,106.567z" />
<glyph unicode="&#x44;" d="M 17.010,344.946L 17.010,464.441 l 119.495,0 l0-119.495 L 17.010,344.946 z M 17.010,165.682L 17.010,285.191 l 119.495,0 l0-119.516 L 17.010,165.675 z M 17.010-13.525L 17.010,105.963 
	l 119.495,0 l0-119.495 L 17.010-13.532 z M 196.252,344.946L 196.252,464.441 l 119.502,0 l0-119.495 L 196.252,344.946 z M 196.252,165.682L 196.252,285.191 l 119.502,0 l0-119.516 L 196.252,165.675 z M 196.252-13.525
	L 196.252,105.963 l 119.502,0 l0-119.495 L 196.252-13.532 z M 375.502,464.441l 119.495,0 l0-119.495 L 375.502,344.946 L 375.502,464.441 z M 375.502,165.682L 375.502,285.191 l 119.495,0 l0-119.516 L 375.502,165.675 z
	 M 375.502-13.525L 375.502,105.963 l 119.495,0 l0-119.495 L 375.502-13.532 z" />
<glyph unicode="&#x45;" d="M 17.024,419.79l 89.7,0 L 106.724,330.098 L 17.024,330.098 L 17.024,419.79 z M 17.024,270.3l 89.7,0 l0-89.714 L 17.024,180.587 L 17.024,270.3 z M 17.024,120.811l 89.7,0 
	l0-89.692 L 17.024,31.118 L 17.024,120.811 z M 495.41,419.79L 495.41,330.098 l-328.889,0 L 166.521,419.79 L 495.41,419.79 z M 166.521,270.3l 328.889,0 l0-89.714 l-328.889,0 L 166.521,270.3 z M 166.521,120.811l 328.889,0 
	l0-89.692 l-328.889,0 L 166.521,120.811 z" />
<glyph unicode="&#x46;" d="M 462.997,99.954l-43.086,0 L 419.911,203.89 L 91.15,203.89 l0-103.936 L 49.003,99.954 c-8.754,0-16.249,3.108-22.478,9.365
	c-6.251,6.201-9.365,13.696-9.365,22.478L 17.159,289.138 c0,9.365, 3.115,17.173, 9.365,23.417c 6.229,6.236, 13.724,9.365, 22.478,9.365l 414.002,0 
	c 8.747,0, 16.242-3.129, 22.478-9.365c 6.236-6.244, 9.365-14.052, 9.365-23.417l0-157.34 c0-8.782-3.129-16.277-9.365-22.478
	C 479.246,103.054, 471.751,99.954, 462.997,99.954z M 394.624,25.024L 118.315,25.024 L 118.315,174.884 l 276.309,0 L 394.624,25.024 z M 121.124,425.892l 268.821,0 l0-73.998 L 121.124,351.893 L 121.124,425.892 
	z" />
<glyph unicode="&#x47;" d="M 492.181,386.503c 2.816-2.816, 4.231-6.428, 4.231-10.802l0-15.026 L 256,210.425L 15.588,360.676l0,15.026 
	c0,4.373, 1.408,7.986, 4.224,10.802s 6.414,4.224, 10.802,4.224l 450.766,0 C 485.76,390.727, 489.365,389.319, 492.181,386.503z M 176.178,230.144
	L 15.588,150.336L 15.588,330.631 L 176.178,230.144z M 316.103,210.425l 180.302-90.14l0-45.077 c0-4.402-1.408-7.986-4.231-10.802
	c-2.816-2.816-6.421-4.231-10.802-4.231L 30.613,60.174 c-4.388,0-7.986,1.408-10.802,4.231c-2.816,2.816-4.224,6.393-4.224,10.802l0,45.077 
	l 180.302,90.14l0,7.516 L 256,180.352l 60.103,37.582L 316.103,210.425 z M 335.829,230.144l 160.583,100.487l0-180.295 L 335.829,230.144z" />
<glyph unicode="&#x48;" d="M 495.979,56.206l0-46.073 L 256.213,10.133 L 16.434,10.133 l0,46.073 c0,16.277, 34.468,36.964, 103.431,62.059
	c 7.524,2.475, 16.761,5.646, 27.74,9.401c 10.965,3.762, 18.482,6.407, 22.571,7.993c 4.068,1.529, 9.081,3.762, 15.047,6.585
	c 5.945,2.816, 9.714,5.767, 11.278,8.939c 1.557,3.115, 3.129,7.047, 4.7,11.748c 1.557,4.7, 2.354,10.46, 2.354,17.394
	c0,7.524-3.925,15.815-11.755,24.917c-7.844,9.067-13.326,21.767-16.455,38.073c-0.633,3.762-2.041,6.585-4.231,8.462
	c-2.204,1.877-4.551,3.129-7.054,3.762c-2.51,0.619-5.028,3.435-7.524,8.462c-2.517,5.013-4.082,12.537-4.7,22.571
	c0,11.285, 1.877,18.482, 5.639,21.625l-2.823,45.134c-0.633,6.891, 0.306,14.884, 2.823,23.979c 2.496,9.081, 7.054,18.482, 13.632,28.21
	c 6.585,9.714, 17.237,18.012, 31.972,24.917C 217.806,437.333, 235.527,440.782, 256.213,440.782c 20.672,0, 38.364-3.449, 53.113-10.347
	c 14.748-6.905, 25.387-15.204, 31.972-24.917c 6.578-9.728, 11.164-19.129, 13.632-28.21c 2.524-9.095, 3.463-17.088, 2.816-23.979
	c-1.23-13.163-2.176-28.21-2.816-45.134l 0.939-1.877c 1.301-1.266, 2.354-3.612, 3.292-7.054c 0.946-3.456, 1.408-7.687, 1.408-12.693
	c-0.583-10.034-2.176-17.557-4.7-22.571c-2.468-5.028-4.992-7.844-7.524-8.462c-2.468-0.633-4.821-1.884-7.047-3.762
	c-2.176-1.884-3.591-4.7-4.238-8.462c-3.115-16.306-8.576-28.999-16.448-38.073c-7.822-9.102-11.755-17.394-11.755-24.917
	c0-6.94, 0.761-12.693, 2.354-17.394c 1.586-4.7, 3.172-8.64, 4.7-11.748c 1.586-3.172, 5.348-6.116, 11.285-8.939
	c 5.995-2.816, 10.987-5.056, 15.040-6.585c 4.11-1.586, 11.641-4.231, 22.571-7.993c 10.987-3.755, 20.217-6.933, 27.733-9.401
	C 461.54,93.177, 495.979,72.484, 495.979,56.206z" />
<glyph unicode="&#x49;" d="M 419.527,83.548l0-38.528 L 218.404,45.020 L 16.348,45.020 l0,38.528 c0,13.753, 29.134,31.31, 87.403,52.629
	c 6.258,1.884, 14.094,4.345, 23.495,7.524c 9.394,3.115, 15.652,5.284, 18.795,6.578c 3.129,1.237, 7.196,3.115, 12.217,5.639
	c 5.006,2.468, 8.135,4.992, 9.394,7.524c 1.252,2.468, 2.496,5.76, 3.762,9.87c 1.252,4.046, 1.877,8.896, 1.877,14.535
	c0,6.286-3.143,13.163-9.394,20.686c-6.272,7.524-10.667,18.169-13.163,31.957c-0.626,3.122-2.041,5.476-4.231,7.047
	c-2.204,1.557-4.231,2.66-6.108,3.285c-1.877,0.619-3.762,2.965-5.639,7.047c-1.877,4.068-3.143,10.176-3.762,18.325
	c0,10.012, 1.252,16.284, 3.762,18.795l-1.877,37.596c-0.633,5.639, 0.149,12.217, 2.347,19.733c 2.19,7.516, 6.108,15.509, 11.748,23.964
	s 14.564,15.509, 26.788,21.148c 12.217,5.639, 26.93,8.455, 44.167,8.455c 17.223,0, 31.957-2.816, 44.174-8.455
	c 12.217-5.639, 21.148-12.686, 26.788-21.148s 9.543-16.448, 11.74-23.964c 2.176-7.516, 2.965-14.094, 2.354-19.733
	c-1.266-11.278-1.884-23.822-1.884-37.596l 0.939-1.877c 0.619-0.633, 1.237-2.51, 1.884-5.639c 0.619-3.143, 0.939-6.905, 0.939-11.278
	c-0.647-8.149-1.877-14.258-3.755-18.325c-1.884-4.082-3.755-6.428-5.639-7.047c-1.884-0.633-3.94-1.735-6.108-3.285
	c-2.204-1.572-3.612-3.925-4.231-7.047c-2.517-13.788-6.905-24.441-13.156-31.957c-6.272-7.531-9.401-14.4-9.401-20.686
	c0-5.639, 0.619-10.489, 1.884-14.535c 1.252-4.11, 2.496-7.403, 3.755-9.87c 1.252-2.524, 4.373-5.056, 9.401-7.524
	c 4.992-2.524, 9.067-4.402, 12.217-5.639c 3.115-1.294, 9.394-3.463, 18.802-6.578c 9.394-3.172, 17.237-5.639, 23.495-7.524
	C 390.393,114.859, 419.527,97.301, 419.527,83.548z M 495.652,127.723l0-21.618 l-58.268,0 c-8.135,9.401-35.705,22.556-82.702,39.474l-36.651,12.224
	c 3.755,1.23, 8.135,2.816, 13.163,4.693c 5.020,1.884, 8.455,3.115, 10.332,3.762c 1.884,0.583, 4.082,1.529, 6.585,2.816
	c 2.496,1.23, 4.082,2.638, 4.693,4.231c 0.619,1.557, 1.266,3.428, 1.884,5.604c 0.619,2.212, 0.939,4.878, 0.939,7.993
	c0,3.755-1.877,7.694-5.639,11.74c-3.755,4.082-6.251,10.197-7.516,18.34c-0.619,1.884-2.503,3.762-5.639,5.639
	c-3.143,1.877-5.028,6.884-5.639,15.040c0,5.006, 0.939,8.455, 2.816,10.34l-1.884,20.679c-0.619,8.761, 2.816,18.005, 10.34,27.719
	c 7.516,9.707, 20.345,14.571, 38.528,14.571s 31.012-4.864, 38.535-14.571c 7.524-9.721, 10.66-18.958, 9.394-27.719
	c-0.612-6.272-0.939-13.163-0.939-20.679l 2.816-10.34c-0.619-8.149-2.674-13.163-6.108-15.040c-3.428-1.877-5.17-3.762-5.17-5.639
	c-1.884-8.149-4.558-14.258-7.986-18.34c-3.435-4.046-5.177-7.986-5.177-11.74c0-3.115, 0.327-5.938, 0.946-8.455
	c 0.612-2.503, 1.266-4.373, 1.877-5.611c 0.619-1.294, 2.354-2.702, 5.177-4.231c 2.816-1.586, 5.17-2.702, 7.047-3.292
	c 1.877-0.647, 5.49-1.877, 10.809-3.755s 9.87-3.463, 13.625-4.7C 479.061,144.932, 495.652,135.246, 495.652,127.723z" />
<glyph unicode="&#x4a;" d="M 396.473,225.237c-0.576-4.971-2.788-9.003-6.507-12.096c-3.719-3.115-7.737-4.651-12.096-4.651
	c-1.863,0-4.651,0.932-8.377,2.795l-59.541,40.939c-1.863,1.237-3.371,2.795-4.651,4.651l-13.952,29.774l-18.603-78.151l 69.774-82.773
	c 1.863-2.503, 3.136-5.291, 3.719-8.37l 18.603-99.548c0-0.64,0-1.572,0-2.795c0-1.28,0-2.212,0-2.795
	c-0.576-7.445-3.712-13.483-9.301-18.14s-12.096-6.684-19.541-6.052c-12.38,0.583-20.117,7.445-23.26,20.466l-17.671,93.966l-56.74,61.404
	l-13.952-60.473c0-0.64-0.32-1.742-0.932-3.257c-0.626-1.572-1.394-3.136-2.325-4.651c-0.932-1.572-1.394-2.674-1.394-3.257
	L 164.836,1.045c-6.208-9.934-14.578-14.3-25.116-13.020c-7.445,0.583-13.49,3.719-18.14,9.308c-4.651,5.575-6.67,12.089-6.044,19.534
	c0,3.086, 1.23,6.805, 3.719,11.164l 50.24,84.658l 42.795,186.965l-27.911-22.329l-14.884-66.055c-0.626-4.345-2.795-8.050-6.514-11.157
	c-3.719-3.115-7.758-4.331-12.096-3.719c-4.971,0-8.996,1.863-12.096,5.582c-3.115,3.719-4.651,8.050-4.651,13.020
	c0,0.612, 0.306,1.543, 0.932,2.795l 16.747,77.22c 1.237,3.719, 3.1,6.82, 5.582,9.308l 79.083,64.192
	c 9.301,6.194, 18.603,8.683, 27.911,7.445c 13.006-0.626, 23.559-7.14, 31.616-19.541L 335.068,277.333l 54.898-37.212
	C 394.965,236.402, 397.12,231.424, 396.473,225.237z M 270.428,384.32c 10.852-0.626, 20.302,2.475, 28.359,9.308
	c 8.085,6.812, 12.558,15.659, 13.483,26.517c 0.932,10.844-2.155,20.466-9.301,28.843c-7.125,8.37-16.114,13.028-26.987,13.952
	c-10.837,0.932-20.302-2.183-28.359-9.301c-8.071-7.14-12.558-16.135-13.49-26.98c-0.932-10.859, 2.169-20.466, 9.301-28.843
	C 250.574,389.44, 259.57,384.932, 270.428,384.32z" />
<glyph unicode="&#x4b;" d="M 32.882,335.46c 11.008,11.008, 24.391,16.526, 40.135,16.526l 56.654,0 L 129.671,13.938 l-56.654,0 c-15.744,0-29.127,5.483-40.135,16.526
	C 21.86,41.472, 16.356,54.841, 16.356,70.599L 16.356,296.27 C 16.356,311.381, 21.86,324.437, 32.882,335.46z M 346.844,428.949
	c 5.668-5.355, 8.498-12.132, 8.498-20.302L 355.342,13.938 L 157.056,13.938 L 157.056,408.64 c0,8.178, 2.83,14.948, 8.498,20.302c 5.668,5.34, 12.274,8.021, 19.833,8.021
	l 141.632,0 C 334.578,436.971, 341.184,434.29, 346.844,428.949z M 327.019,408.64L 185.387,408.64 l0-56.654 l 141.632,0 L 327.019,408.64 z M 479.531,335.46
	c 11.036-11.022, 16.519-24.078, 16.519-39.189l0-225.671 c0-15.758-5.483-29.127-16.519-40.135c-10.98-11.044-24.377-16.526-40.135-16.526l-56.661,0 L 382.734,351.986 
	l 56.661,0 C 455.154,351.986, 468.551,346.468, 479.531,335.46z" />
<glyph unicode="&#x4c;" d="M 403.086,446.948c 11.612-11.89, 17.358-25.97, 17.358-42.233l0-358.514 c0-16.277-5.753-30.364-17.358-42.233
	c-11.563-11.911-25.813-17.835-42.709-17.835L 152.036-13.867 c-16.896,0-31.132,5.924-42.702,17.835c-11.584,11.876-17.365,25.956-17.365,42.233L 91.968,404.715 
	c0,16.263, 5.774,30.343, 17.365,42.233c 11.57,11.876, 25.806,17.835, 42.702,17.835l 208.341,0 C 377.273,464.775, 391.524,458.823, 403.086,446.948z
	 M 390.407,374.677c0,8.128-2.816,15.161-8.448,21.12c-5.632,5.938-12.793,8.917-21.589,8.917L 152.036,404.715 c-8.768,0-15.957-2.98-21.589-8.917
	c-5.632-5.952-8.448-12.992-8.448-21.12l0-268.416 c0-8.149, 2.816-15.189, 8.448-21.113c 5.632-5.988, 12.814-8.917, 21.589-8.917l 208.341,0 
	c 8.796,0, 15.957,2.93, 21.589,8.917c 5.632,5.924, 8.448,12.956, 8.448,21.113L 390.414,374.677 z M 283.413,31.182c0,7.516-2.638,14.080-7.979,19.712
	c-5.305,5.625-11.712,8.448-19.228,8.448c-7.509,0-14.080-2.816-19.705-8.448c-5.632-5.632-8.448-12.203-8.448-19.712
	c0-7.509, 2.816-13.931, 8.448-19.236c 5.632-5.34, 12.203-7.979, 19.705-7.979c 7.509,0, 13.924,2.638, 19.228,7.979
	C 280.775,17.252, 283.413,23.673, 283.413,31.182z" />
<glyph unicode="&#x4d;" d="M 388.836,76.544l 4.679,0 l-12.167-45.852l-12.16-43.036l-44.914,0 L 201.7-12.345 l-11.228,43.036l 145.963,0 l 12.16,45.852l-15.9,0 L 183.922,76.544 
	c-0.626,0-1.095,0-1.401,0c-0.32,0-0.789,0-1.401,0l-3.74,0.932c-14.969,2.46-24.647,11.228-29.006,26.204l-16.839,62.684L 64.156,418.048
	c-3.129,9.351-2.197,18.389, 2.809,27.129c 4.985,8.732, 12.309,14.343, 21.988,16.846c 9.664,2.489, 18.859,1.244, 27.598-3.74
	c 8.732-4.999, 14.343-12.16, 16.846-21.518l 41.173-150.642l 203.036,0 l0-43.975 L 185.792,242.148 l 12.167-44.892L 388.836,197.255 c 16.839,0, 31.204-5.966, 43.044-17.778
	c 11.84-11.876, 17.778-26.084, 17.778-42.574c0-16.548,0-24.789,0-24.789s-5.938-5.966-17.778-17.778C 420.032,82.446, 405.675,76.544, 388.836,76.544z" />
<glyph unicode="&#x4e;" d="M 420.452,303.708c 21.433-14.905, 39.132-29.668, 53.106-44.26c 13.98-14.599, 20.964-25.778, 20.964-33.543
	c0-7.772-6.983-18.958-20.964-33.557c-13.973-14.613-31.673-29.518-53.106-44.722c-21.433-15.196-47.232-28.416-77.333-39.595
	c-30.137-11.179-59.164-16.768-87.118-16.768s-57.010,5.589-87.111,16.768c-30.137,11.179-55.908,24.405-77.333,39.595
	c-21.433,15.204-39.132,30.108-53.106,44.722c-13.973,14.606-20.964,25.785-20.964,33.557c0,7.758, 6.99,18.944, 20.964,33.543
	c 13.973,14.585, 31.68,29.348, 53.106,44.26c 21.426,14.912, 47.196,27.954, 77.333,39.132c 30.101,11.179, 59.164,16.768, 87.111,16.768
	s 56.981-5.589, 87.118-16.768C 373.22,331.662, 399.019,318.62, 420.452,303.708z M 345.444,225.913c0,24.533-8.711,45.497-26.091,62.891
	c-17.408,17.38-38.521,26.084-63.353,26.084c-24.868,0-45.973-8.704-63.36-26.084c-17.408-17.394-26.084-38.364-26.084-62.891
	s 8.676-45.668, 26.084-63.374c 17.38-17.7, 38.492-26.553, 63.36-26.553c 24.832,0, 45.945,8.853, 63.353,26.553
	C 336.74,180.245, 345.444,201.38, 345.444,225.913z M 256,255.26c 8.064,0, 15.054-2.795, 20.964-8.384c 5.881-5.589, 8.846-12.58, 8.846-20.964
	s-2.965-15.531-8.846-21.426c-5.909-5.895-12.9-8.868-20.964-8.868c-8.092,0-15.083,2.972-20.964,8.868
	c-5.909,5.895-8.853,13.042-8.853,21.426s 2.944,15.374, 8.853,20.964C 240.917,252.466, 247.908,255.26, 256,255.26z" />
<glyph unicode="&#x4f;" d="M 495.211,464.441l0-44.914 l-72.718-70.578L 274.923,201.38l-42.773,42.773l-36.359,36.359L 93.134,177.863L 17.209,103.004
	l0,85.547 l 75.925,74.852L 174.4,344.676l 21.39,21.39L 274.923,286.933l 104.789,104.796L 457.778,464.441L 495.211,464.441 z M 56.775,30.293l 80.199,79.132
	l0-122.98 L 56.775-13.554 L 56.775,30.293 z M 176.54,148.985l0-162.539 l 80.199,0 L 256.74,105.145 l-62.023,62.023L 176.54,148.985z M 296.306,109.426l 80.199,80.199l0-203.179 L 296.306-13.554 
	L 296.306,109.426 z M 422.492,235.605l 72.718,75.925l0-325.084 L 416.078-13.554 L 416.078,229.184 L 422.492,235.605z" />
<glyph unicode="&#x50;" d="M 495.41,83.292L 398.151,83.292 L 113.849,83.292 L 16.59,83.292 L 16.59,184.292 c 11.221,0, 20.871,3.918, 28.992,11.691
	c 8.1,7.808, 12.16,17.465, 12.16,29.006c0,11.527-4.060,21.348-12.16,29.461c-8.121,8.092-17.771,12.153-28.992,12.153L 16.59,367.602 L 113.849,367.602 l 284.302,0 
	l 97.259,0 l0-101.006 c-11.221,0-20.892-4.060-28.992-12.153c-8.128-8.114-12.153-17.927-12.153-29.461c0-11.541, 4.025-21.198, 12.153-29.006
	c 8.1-7.772, 17.771-11.691, 28.992-11.691L 495.41,83.292 z M 401.892,268.473c0,12.466-4.53,23.381-13.554,32.732
	c-9.060,9.351-20.11,14.030-33.202,14.030L 156.871,315.236 c-13.092,0-24.164-4.679-33.195-14.030c-9.060-9.351-13.561-20.267-13.561-32.732l0-86.059 
	c0-13.092, 4.501-24.142, 13.561-33.195c 9.031-9.060, 20.11-13.561, 33.195-13.561L 355.129,135.659 c 13.092,0, 24.142,4.501, 33.202,13.561
	c 9.031,9.052, 13.554,20.103, 13.554,33.195L 401.884,268.473 z M 362.148,275.015c 2.162-1.87, 3.271-4.060, 3.271-6.542l0-86.059 
	c0-3.1-1.109-5.611-3.271-7.481c-2.197-1.87-4.53-2.809-7.012-2.809L 156.871,172.124 c-2.51,0-4.85,0.939-7.012,2.809
	c-2.19,1.87-3.271,4.38-3.271,7.481L 146.588,268.473 c0,2.489, 1.081,4.679, 3.271,6.542c 2.162,1.87, 4.501,2.809, 7.012,2.809L 355.129,277.824 
	C 357.618,277.824, 359.95,276.892, 362.148,275.015z" />
<glyph unicode="&#x51;" d="M 451.428,407.78l0-135.58 c0-64.846-18.233-123.428-54.699-175.794C 360.256,44.039, 313.33,7.573, 256-12.992
	c-57.358,20.572-104.263,57.038-140.729,109.397c-36.466,52.366-54.699,110.955-54.699,175.794L 60.572,407.78 C 130.382,410.894, 195.513,429.596, 256,463.886
	C 316.459,429.596, 381.589,410.894, 451.428,407.78z M 426.183,383.467C 366.343,389.696, 309.589,406.521, 256,433.963
	c-53.625-27.435-110.336-44.267-170.183-50.496l0-111.268 c0-57.358, 15.573-109.582, 46.756-156.622C 163.719,68.53, 204.864,35.015, 256,15.054
	c 51.108,19.961, 92.252,53.476, 123.428,100.523c 31.147,47.040, 46.748,99.264, 46.748,156.622L 426.176,383.467 z M 256,405.916
	c 45.497-22.443, 93.504-37.404, 144-44.885l0-88.832 c0-49.252-13.092-94.905-39.268-136.988C 334.549,93.134, 299.627,62.45, 256,43.108
	c-43.655,19.349-78.542,50.027-104.725,92.103c-26.183,42.084-39.275,87.737-39.275,136.988L 112,361.031 C 162.496,368.512, 210.475,383.467, 256,405.916z" />
<glyph unicode="&#x52;" d="M 494.876,225.444c0-65.906-23.31-122.126-69.924-168.74c-46.62-46.613-102.876-69.924-168.74-69.924
	c-65.899,0-122.126,23.31-168.74,69.924c-46.613,46.62-69.924,102.841-69.924,168.74c0,65.87, 23.303,122.126, 69.924,168.74
	s 102.841,69.924, 168.74,69.924c 65.87,0, 122.126-23.303, 168.74-69.924C 471.559,347.57, 494.876,291.314, 494.876,225.444z M 406.308,348.971
	c0,7.132-2.652,13.355-7.922,18.645c-5.305,5.269-11.506,7.922-18.645,7.922c-7.168,0-13.227-2.802-18.183-8.391L 288.839,295.367l-195.783,25.173
	l-18.645-18.645l 156.622-64.327l-62.464-63.396l-76.444,8.398l-11.186-10.254l 79.246-39.161l 1.863-1.863c 0.612,0, 1.223-0.32, 1.863-0.932
	l 38.222-79.246l 10.254,11.186l-8.391,74.574l 64.327,63.396l 64.327-155.691l 17.714,17.714l-24.235,195.776l 71.787,72.718
	C 403.506,335.758, 406.308,341.817, 406.308,348.971z" />
<glyph unicode="&#x53;" d="M 486.549,401.97L 380.821,296.242l 36.821-286.030l-26.432-26.439L 296.804,212.231l-92.508-92.516l 11.328-109.497
	l-15.104-15.104l-56.64,114.219c-0.647,0.619-1.266,1.237-1.884,1.892c-0.647,1.237-1.593,2.183-2.83,2.83L 23.993,170.695l 16.050,15.104
	l 111.388-12.274l 91.57,92.508L 14.549,360.441l 26.432,26.432l 286.030-36.814L 432.74,455.78c 7.552,7.552, 16.519,11.328, 26.901,11.328
	s 19.356-3.776, 26.901-11.328c 7.552-7.552, 11.328-16.519, 11.328-26.908C 497.877,418.496, 494.101,409.522, 486.549,401.97z" />
<glyph unicode="&#x54;" d="M 484.345,453.788c 7.872-7.908, 11.847-17.607, 11.847-29.084l0-199.26 l0-240.192 L 183.836-14.748 c-5.753,0-10.432,1.621-14.002,4.85
	c-3.605,3.228-5.76,7.367-6.464,12.388c-4.309,37.362-20.466,68.565-48.469,93.71c-28.004,25.102-61.056,37.696-99.093,37.696L 15.808,225.444 
	L 157.98,447.324c 7.879,12.203, 19.392,18.311, 34.468,18.311l 262.812,0 C 466.745,465.636, 476.437,461.682, 484.345,453.788z M 436.949,284.686L 436.949,406.4 L 210.759,406.4 
	L 133.212,284.686L 436.949,284.686 z M 436.949,196.359L 315.243,196.359 l0-32.313 l 121.707,0 L 436.949,196.359 z" />
<glyph unicode="&#x55;" d="M 496.398,224.981c0-66.468-23.502-122.987-70.507-169.7c-46.997-46.649-103.73-70.037-170.148-70.037
	c-66.453,0-123.001,23.388-169.685,70.037c-46.706,46.713-70.037,103.239-70.037,169.7c0,66.418, 23.324,123.15, 70.037,170.155
	C 132.736,442.133, 189.291,465.636, 255.737,465.636c 66.418,0, 123.15-23.502, 170.148-70.507C 472.896,348.132, 496.398,291.399, 496.398,224.981z
	 M 425.422,147.406c 2.176,2.176, 3.285,4.878, 3.285,7.986L 428.708,241.899 c0,2.496-1.109,4.85-3.285,7.054c-2.212,2.19-4.558,3.285-7.054,3.285
	l-9.394,0 l-41.365,111.865c-1.877,5.013-5.348,7.524-10.34,7.524L 154.212,371.627 c-5.028,0-8.164-2.51-9.401-7.524l-42.304-111.865l-8.462,0 
	c-3.143,0-5.817-1.102-7.993-3.285c-2.204-2.204-3.285-4.558-3.285-7.054l0-86.507 c0-3.115, 1.088-5.81, 3.285-7.986
	c 2.176-2.176, 4.85-3.292, 7.993-3.292l0-31.964 c0-3.115, 1.088-5.81, 3.292-7.986c 2.176-2.176, 4.523-3.292, 7.054-3.292l 54.521,0 
	c 3.115,0, 5.639,1.116, 7.524,3.292c 1.884,2.176, 2.823,4.878, 2.823,7.986l0,31.964 l 172.971,0 l0-31.964 c0-3.115, 1.088-5.81, 3.292-7.986
	c 2.176-2.176, 4.85-3.292, 7.993-3.292l 53.582,0 c 3.115,0, 5.781,1.116, 7.993,3.292c 2.176,2.176, 3.285,4.878, 3.285,7.986l0,31.964 
	C 420.871,144.121, 423.218,145.237, 425.422,147.406z M 169.252,203.812c0-7.232-2.524-13.461-7.524-18.809c-5.028-5.34-11.278-7.986-18.802-7.986
	s-13.952,2.645-19.271,7.986c-5.348,5.348-7.993,11.577-7.993,18.809c0,7.211, 2.645,13.483, 7.993,18.816
	c 5.319,5.319, 11.748,7.993, 19.271,7.993s 13.781-2.674, 18.802-7.993C 166.727,217.301, 169.252,211.022, 169.252,203.812z M 375.125,252.238L 137.287,252.238 
	l 31.964,86.485l 172.971,0 L 375.125,252.238z M 396.75,203.812c0-7.232-2.674-13.461-7.993-18.809c-5.348-5.34-11.748-7.986-19.271-7.986
	s-13.952,2.645-19.271,7.986c-5.348,5.348-7.993,11.577-7.993,18.809c0,7.211, 2.645,13.483, 7.993,18.816
	c 5.319,5.319, 11.748,7.993, 19.271,7.993s 13.924-2.674, 19.271-7.993C 394.076,217.301, 396.75,211.022, 396.75,203.812z" />
<glyph unicode="&#x56;" d="M 491.342,243.804c 3.115-2.823, 4.708-6.443, 4.708-10.823L 496.050,113.422 c0-4.416-1.593-8.007-4.708-10.823
	c-3.143-2.823-6.585-4.238-10.354-4.238l0-45.184 c0-4.38-1.586-8-4.7-10.823c-3.15-2.823-6.592-4.238-10.361-4.238l-75.307,0 
	c-3.762,0-7.239,1.408-10.354,4.238c-3.15,2.823-4.708,6.443-4.708,10.823l0,45.184 L 136.448,98.361 l0-45.184 c0-4.38-1.586-8-4.708-10.823
	c-3.15-2.823-6.592-4.238-10.361-4.238L 46.073,38.116 c-3.762,0-7.239,1.408-10.354,4.238c-3.15,2.823-4.708,6.443-4.708,10.823l0,45.184 
	c-3.762,0-7.239,1.408-10.354,4.238c-3.143,2.816-4.708,6.407-4.708,10.823L 15.95,232.974 c0,4.38, 1.557,8, 4.708,10.823
	c 3.115,2.823, 6.592,4.238, 10.354,4.238l 12.238,0 l 58.368,155.328c 2.503,6.265, 7.211,9.415, 14.123,9.415l 280.526,0 
	c 6.884,0, 11.591-3.15, 14.116-9.415l 58.368-155.328l 12.238,0 C 484.757,248.036, 488.192,246.628, 491.342,243.804z M 136.448,180.729
	c0,10.354-3.762,19.122-11.292,26.361c-7.531,7.204-16.476,10.823-26.83,10.823s-19.15-3.627-26.361-10.823
	c-7.239-7.239-10.823-16.007-10.823-26.361s 3.591-19.3, 10.823-26.823c 7.211-7.538, 16-11.3, 26.361-11.3s 19.3,3.762, 26.83,11.3
	C 132.679,161.429, 136.448,170.375, 136.448,180.729z M 420.743,248.036l-45.184,119.552L 136.448,367.588 L 91.257,248.036L 420.743,248.036 z M 413.682,217.92
	c-10.354,0-19.3-3.627-26.823-10.823c-7.538-7.239-11.3-16.007-11.3-26.361s 3.762-19.3, 11.3-26.823c 7.531-7.538, 16.469-11.3, 26.823-11.3
	s 19.115,3.762, 26.361,11.3c 7.204,7.531, 10.816,16.469, 10.816,26.823s-3.62,19.122-10.816,26.361C 432.796,214.293, 424.036,217.92, 413.682,217.92z
	" />
<glyph unicode="&#x57;" d="M 496.398,225.444c0-66.126-23.353-122.681-70.037-169.678c-46.706-47.004-103.26-70.507-169.685-70.507
	c-66.432,0-123.15,23.502-170.155,70.507c-47.004,46.997-70.507,103.552-70.507,169.678c0,66.112, 23.502,122.681, 70.507,169.685
	s 103.716,70.507, 170.155,70.507c 66.418,0, 122.972-23.502, 169.685-70.507C 473.038,348.124, 496.398,291.556, 496.398,225.444z M 413.668,121.572l-38.542,0 
	L 375.125,315.221 c0,5.006-1.877,9.401-5.639,13.163c-3.755,3.762-8.455,5.639-14.094,5.639l-38.549,0 l0,39.488 c0,5.006-1.877,9.401-5.639,13.163
	c-3.755,3.762-8.455,5.639-14.094,5.639L 161.735,392.313 c-5.028,0-9.564-1.877-13.632-5.639c-4.082-3.762-6.108-8.149-6.108-13.163l0-251.94 l-38.542,0 
	l0-39.488 l 310.222,0 L 413.675,121.572 z M 181.476,315.221l 38.542,0 l0,38.542 l-38.542,0 L 181.476,315.221 z M 181.476,256.939l 38.542,0 l0,38.542 l-38.542,0 L 181.476,256.939 z M 181.476,198.656l 38.542,0 l0,38.542 
	l-38.542,0 L 181.476,198.656 z M 181.476,140.366l 38.542,0 l0,38.542 l-38.542,0 L 181.476,140.366 z M 239.758,315.221l 38.542,0 l0,38.542 l-38.542,0 L 239.758,315.221 z M 239.758,256.939l 38.542,0 l0,38.542 l-38.542,0 
	L 239.758,256.939 z M 239.758,198.656l 38.542,0 l0,38.542 l-38.542,0 L 239.758,198.656 z M 239.758,120.626l 38.542,0 l0,58.283 l-38.542,0 L 239.758,120.626 z M 297.102,256.939l 39.481,0 l0,38.542 L 297.102,295.481 
	L 297.102,256.939 z M 297.102,198.656l 39.481,0 l0,38.542 L 297.102,237.198 L 297.102,198.656 z M 297.102,140.366l 39.481,0 l0,38.542 L 297.102,178.908 L 297.102,140.366 z" />
<glyph unicode="&#x58;" d="M 497.401,45.49l0-61.234 L 15.026-15.744 l0,61.234 l 60.295,0 L 75.321,436.48 c0,8.156, 2.972,15.225, 8.946,21.198
	C 90.233,463.644, 97.301,466.631, 105.472,466.631L 316.516,466.631 c 8.149,0, 15.225-2.987, 21.191-8.953c 5.98-5.973, 8.953-13.042, 8.953-21.198l0-60.295 l 60.295,0 
	c 8.149,0, 15.225-2.987, 21.191-8.953c 5.98-5.973, 8.953-13.042, 8.953-21.198l0-300.544 L 497.401,45.49 z M 195.918,406.336l-60.295,0 l0-60.295 l 60.295,0 L 195.918,406.336 z
	 M 195.918,315.89l-60.295,0 l0-60.295 l 60.295,0 L 195.918,315.89 z M 195.918,225.444l-60.295,0 l0-60.295 l 60.295,0 L 195.918,225.444 z M 195.918,134.997l-60.295,0 l0-60.295 l 60.295,0 L 195.918,134.997 z
	 M 286.364,406.336l-60.295,0 l0-60.295 l 60.295,0 L 286.364,406.336 z M 286.364,315.89l-60.295,0 l0-60.295 l 60.295,0 L 286.364,315.89 z M 286.364,225.444l-60.295,0 l0-60.295 l 60.295,0 L 286.364,225.444 z
	 M 286.364,134.997l-60.295,0 l0-90.446 l 60.295,0 L 286.364,134.997 z M 376.804,315.89L 316.516,315.89 l0-60.295 l 60.295,0 L 376.811,315.89 z M 376.804,225.444L 316.516,225.444 l0-60.295 l 60.295,0 L 376.811,225.444 z
	 M 376.804,134.997L 316.516,134.997 l0-60.295 l 60.295,0 L 376.811,134.997 z" />
<glyph unicode="&#x59;" d="M 496.654,225.451c0-66.404-23.481-123.051-70.436-170.020c-46.962-46.962-103.637-70.436-169.998-70.436
	c-66.375,0-123.036,23.481-169.998,70.436c-46.962,46.962-70.443,103.609-70.443,170.020c0,66.361, 23.481,123.036, 70.443,169.998
	S 189.838,465.892, 256.213,465.892c 66.361,0, 123.036-23.481, 169.998-70.443C 473.173,348.487, 496.654,291.812, 496.654,225.451z M 90.916,217.934
	c 2.496,1.244, 5.006,1.877, 7.516,1.877l 90.162,0 l0,34.752 c0,5.632, 2.027,10.482, 6.108,14.556c 4.060,4.068, 8.917,6.101, 14.556,6.101l 35.691,0 
	l0,34.752 c0,10.005, 4.373,16.583, 13.148,19.719l0,36.629 c0,4.373-2.204,6.578-6.571,6.578L 153.842,372.9 c-4.388,0-6.578-2.204-6.578-6.578l0-48.839 
	l-48.839,0 c-5.020,0-7.516-2.51-7.516-7.516L 90.908,217.934 z M 258.091,199.132c0,4.402-2.204,6.592-6.571,6.592L 98.425,205.724 
	c-5.020,0-7.516-2.19-7.516-6.592l0-97.671 c0-4.992, 2.496-7.516, 7.516-7.516L 251.52,93.945 c 4.373,0, 6.571,2.517, 6.571,7.516L 258.091,199.132 z
	 M 174.507,317.49l 56.356,0 l0,27.236 L 174.507,344.725 L 174.507,317.49 z M 425.28,254.564c0,4.373-2.204,6.578-6.578,6.578l-48.839,0 l0,48.839 
	c0,5.006-2.204,7.516-6.578,7.516L 265.607,317.497 c-5.013,0-7.509-2.51-7.509-7.516l0-48.839 l-48.839,0 c-4.388,0-6.571-2.204-6.571-6.578l0-34.752 
	l 48.839,0 c 5.632,0, 10.482-2.041, 14.556-6.101c 4.060-4.082, 6.101-8.924, 6.101-14.578l0-97.671 c0-2.524-0.32-4.992-0.939-7.516L 418.702,93.945 
	c 4.373,0, 6.578,2.517, 6.578,7.516L 425.28,254.564 z M 286.272,261.141l 55.417,0 l0,28.174 l-55.417,0 L 286.272,261.141 z" />
<glyph unicode="&#x5a;" d="M 25.934,205.724c-3.136,0-6.265-0.64-9.394-1.913L 16.54,335.41 c0,2.496, 0.946,4.85, 2.816,7.040
	c 1.877,2.197, 4.075,3.292, 6.578,3.292l 70.492,0 l0,69.547 c0,3.129, 0.946,5.639, 2.823,7.516c 1.877,1.877, 4.068,2.823, 6.585,2.823l 140.039,0 
	c 3.115,0, 5.639-0.946, 7.509-2.823c 1.884-1.877, 2.816-4.388, 2.816-7.516l0-51.691 c-13.148-5.028-19.719-14.421-19.719-28.196l0-49.813 L 186.667,285.589 
	c-8.789,0-15.979-2.98-21.625-8.924c-5.639-5.966-8.455-13.013-8.455-21.156l0-49.792 L 25.934,205.717 z M 253.383,182.222
	c 1.884-1.906, 2.816-4.089, 2.816-6.592l0-140.032 c0-3.115-0.932-5.639-2.816-7.531c-1.87-1.884-4.395-2.816-7.509-2.816L 25.934,25.252 
	c-2.503,0-4.7,0.939-6.578,2.816c-1.877,1.892-2.816,4.409-2.816,7.531L 16.54,175.63 c0,2.503, 0.946,4.686, 2.816,6.592
	c 1.877,1.87, 4.075,2.802, 6.578,2.802l 219.94,0 C 248.988,185.024, 251.513,184.092, 253.383,182.222z M 135.908,345.749l 79.886,0 l0,39.481 L 135.908,385.23 
	L 135.908,345.749 z M 493.063,262.564c 1.87-2.204, 2.816-4.551, 2.816-7.047l0-219.918 c0-3.115-0.953-5.639-2.816-7.531
	c-1.892-1.884-4.096-2.816-6.578-2.816L 274.055,25.252 c 1.252,3.755, 1.892,7.232, 1.892,10.347L 275.947,175.63 c0,8.121-2.816,15.182-8.455,21.141
	c-5.646,5.938-12.857,8.953-21.611,8.953l-69.547,0 l0,49.792 c0,2.503, 0.932,4.843, 2.809,7.047c 1.892,2.197, 4.38,3.285, 7.531,3.285l 69.54,0 
	l0,69.561 c0,2.496, 0.953,4.85, 2.816,7.040c 1.892,2.197, 4.388,3.292, 7.531,3.292l 140.025,0 c 2.51,0, 4.708-1.102, 6.599-3.292
	c 1.87-2.197, 2.816-4.551, 2.816-7.040l0-69.561 l 70.492,0 C 488.967,265.856, 491.172,264.761, 493.063,262.564z M 376.505,305.33L 296.626,305.33 l0-39.474 l 79.879,0 
	L 376.505,305.33 z" />
<glyph unicode="&#x5b;" d="M 493.404,225.835c0-65.408-23.132-121.223-69.397-167.488c-46.272-46.265-102.101-69.404-167.488-69.404
	c-65.394,0-121.216,23.14-167.488,69.404S 19.634,160.427, 19.634,225.835c0,65.38, 23.132,121.216, 69.397,167.488S 191.125,462.72, 256.519,462.72
	c 65.38,0, 121.216-23.132, 167.488-69.397C 470.272,347.051, 493.404,291.214, 493.404,225.835z M 150.108,198.997c 16.654-16.661, 27.762-38.258, 33.316-64.775
	c 6.784-3.093, 14.485-8.647, 23.132-16.654c 2.46-1.856, 3.705-3.1, 3.705-3.705c0,0.604, 1.23,2.14, 3.705,4.622
	c 12.331,11.712, 24.988,18.19, 37.938,19.428L 251.904,317.44 L 86.258,253.596l0-24.981 C 112.171,225.515, 133.454,215.652, 150.108,198.997z M 407.815,78.706
	c 2.169,2.46, 3.236,5.227, 3.236,8.327c0,3.065-1.067,5.696-3.236,7.858c-2.169,2.148-4.772,3.243-7.865,3.243
	c-4.942,0-10.176,2.78-15.73,8.327c-10.496,10.468-21.141,15.73-31.922,15.73s-21.426-5.262-31.922-15.73
	c-5.547-5.547-10.638-8.327-15.26-8.327c-4.629,0-10.034,2.78-16.192,8.327c-9.863,10.468-20.359,15.73-31.467,15.73
	c-11.1,0-21.604-5.262-31.46-15.73c-6.172-5.547-11.57-8.327-16.192-8.327c-4.629,0-9.714,2.78-15.268,8.327
	c-9.877,10.468-20.359,15.73-31.46,15.73s-21.909-5.262-32.384-15.73c-5.554-5.547-10.802-8.327-15.73-8.327
	c-3.093,0-5.71-1.095-7.865-3.243c-2.169-2.169-3.243-4.8-3.243-7.858c0-3.1, 1.067-5.867, 3.243-8.327
	c 2.155-2.46, 4.772-3.705, 7.865-3.705c 11.108,0, 21.888,5.227, 32.384,15.73c 5.554,5.547, 10.645,8.327, 15.268,8.327
	c 4.622,0, 9.714-2.78, 15.268-8.327c 10.482-10.503, 21.284-15.73, 32.384-15.73s 21.589,5.227, 31.46,15.73c 5.554,5.547, 10.788,8.327, 15.73,8.327
	c 4.928,0, 10.183-2.78, 15.73-8.327c 9.863-10.503, 20.359-15.73, 31.467-15.73s 21.888,5.227, 32.391,15.73c 5.547,5.547, 10.638,8.327, 15.26,8.327
	s 9.714-2.78, 15.268-8.327c 10.496-10.503, 21.276-15.73, 32.384-15.73C 403.044,75.008, 405.646,76.252, 407.815,78.706z M 130.674,329.472l 17.579,0 
	l0-34.24 l 109.184,41.643l 108.267-41.643l0,34.24 l 19.428,0 l0,20.352 L 130.674,349.824 L 130.674,329.472 z M 169.536,360.007l 175.815,0 l0,21.284 l-71.253,0 l0,20.359 l-31.46,0 l0-20.359 
	l-73.102,0 L 169.536,360.007 z M 207.481,266.546c0,3.705, 1.387,6.94, 4.16,9.714c 2.773,2.78, 6.016,4.16, 9.714,4.16s 6.94-1.387, 9.714-4.16
	c 2.78-2.773, 4.167-6.016, 4.167-9.714s-1.387-6.798-4.167-9.252c-2.773-2.475-6.016-3.705-9.714-3.705s-6.94,1.23-9.714,3.705
	C 208.868,259.755, 207.481,262.848, 207.481,266.546z M 364.786,198.535c 16.654,16.96, 37.938,26.98, 63.851,30.073l0,24.981 L 262.073,317.44l0-179.52 
	c 13.561-1.244, 26.517-8.036, 38.869-20.352l 3.705-3.705l 4.622,4.622c 8.014,7.403, 15.417,12.636, 22.208,15.73
	C 337.031,160.135, 348.132,181.561, 364.786,198.535z M 308.338,267.008c0-4.018-1.387-7.403-4.167-10.176c-2.773-2.78-6.158-4.167-10.176-4.167
	c-4.018,0-7.403,1.387-10.183,4.167c-2.78,2.773-4.167,6.158-4.167,10.176c0,4.004, 1.387,7.403, 4.167,10.183
	c 2.78,2.773, 6.158,4.16, 10.183,4.16c 4.011,0, 7.403-1.387, 10.176-4.16C 306.951,274.411, 308.338,271.012, 308.338,267.008z" />
<glyph unicode="&#x5c;" d="M 105.33,169.415c-23.239,23.545-53.369,37.191-90.404,40.96l0,36.729 L 249.408,336.569l0-252.38 
	c-18.837-1.884-37.049-11.3-54.62-28.252l-4.708-5.646l-0.939,0 l-4.708,5.646c-11.3,11.3-22.293,18.83-32.96,22.606
	C 143.936,115.563, 128.548,145.87, 105.33,169.415z M 467.883,22.976c 3.143-3.115, 4.708-6.891, 4.708-11.3c0-4.388-1.564-8.149-4.708-11.3
	c-3.143-3.122-6.919-4.715-11.3-4.715c-15.687,0-30.457,7.246-44.267,21.66c-8.149,7.538-15.538,11.307-22.123,11.307
	c-6.599,0-13.98-3.769-22.13-11.307c-14.45-14.414-29.511-21.66-45.198-21.66c-15.716,0-30.457,7.246-44.26,21.66
	c-8.164,7.538-15.545,11.307-22.13,11.307c-6.592,0-13.98-3.769-22.13-11.307c-14.45-14.414-29.355-21.66-44.729-21.66
	c-15.396,0-30.3,7.246-44.736,21.66c-8.164,7.538-15.538,11.307-22.13,11.307c-6.592,0-13.98-3.769-22.13-11.307
	c-14.45-14.414-29.191-21.66-44.26-21.66c-4.402,0-8.327,1.593-11.769,4.715c-3.456,3.143-5.184,6.912-5.184,11.3
	c0,4.409, 1.721,8.178, 5.184,11.3c 3.442,3.143, 7.374,4.708, 11.769,4.708c 6.265,0, 13.49,4.089, 21.66,12.245
	c 14.436,14.45, 29.333,21.66, 44.729,21.66c 15.374,0, 30.279-7.211, 44.729-21.66c 8.149-8.149, 15.538-12.245, 22.13-12.245
	c 6.592,0, 13.959,4.089, 22.13,12.245c 14.436,14.45, 29.34,21.66, 44.736,21.66c 15.36,0, 30.279-7.211, 44.729-21.66
	c 8.149-8.149, 15.538-12.245, 22.13-12.245c 6.592,0, 13.98,4.089, 22.123,12.245c 13.803,14.45, 28.58,21.66, 44.267,21.66
	c 15.68,0, 30.748-7.211, 45.198-21.66c 8.149-8.149, 15.388-12.245, 21.66-12.245C 460.964,27.691, 464.74,26.126, 467.883,22.976z M 103.445,353.515
	l-25.422,0 l0,29.191 l 358.784,0 l0-29.191 l-28.252,0 l0-48.021 L 256,364.814l-152.555-59.328L 103.445,353.515 z M 380.302,396.836L 132.636,396.836 L 132.636,426.027 l 102.642,0 L 235.278,455.218 l 44.26,0 L 279.538,426.027 
	l 100.764,0 L 380.302,396.836 z M 186.318,265.465c0-5.34, 1.884-9.884, 5.646-13.653s 8.313-5.646, 13.653-5.646c 5.326,0, 9.892,1.884, 13.653,5.646
	s 5.646,8.313, 5.646,13.653c0,5.326-1.884,9.892-5.646,13.653s-8.327,5.646-13.653,5.646c-5.34,0-9.884-1.884-13.653-5.646
	S 186.318,270.791, 186.318,265.465z M 497.074,247.104l0-36.729 c-35.783-3.762-65.6-17.6-89.465-41.429c-23.858-23.865-39.552-54.002-47.083-90.404
	c-10.034-4.388-20.715-11.925-32.014-22.606c-3.15-3.762-5.035-5.646-5.653-5.646l-5.653,5.646c-16.953,16.953-35.164,26.368-54.62,28.252
	L 262.585,336.569 L 497.074,247.104z M 327.566,265.465c0,5.326-1.884,9.892-5.653,13.653c-3.762,3.769-8.469,5.646-14.123,5.646
	c-5.646,0-10.354-1.884-14.123-5.646c-3.762-3.769-5.646-8.327-5.646-13.653c0-5.34, 1.884-10.048, 5.646-14.123
	c 3.769-4.089, 8.476-6.123, 14.123-6.123c 5.653,0, 10.361,2.034, 14.123,6.123C 325.689,255.417, 327.566,260.124, 327.566,265.465z" />
<glyph unicode="&#x5d;" d="M 493.113,225.444c0-65.728-23.104-121.657-69.276-167.836S 321.7-11.669, 256-11.669
	c-65.714,0-121.664,23.104-167.836,69.276C 41.977,103.787, 18.894,159.716, 18.894,225.444c0,65.7, 23.090,121.65, 69.276,167.836
	C 134.336,439.452, 190.286,462.549, 256,462.549c 65.7,0, 121.657-23.104, 167.836-69.276C 470.009,347.093, 493.113,291.143, 493.113,225.444z M 355.492,372.359
	c0,7.438-2.475,13.632-7.438,18.596c-4.971,4.956-10.837,7.438-17.664,7.438L 181.618,398.393 c-6.827,0-12.715-2.482-17.664-7.438
	c-4.971-4.971-7.438-11.157-7.438-18.596l0-220.373 c0-7.438, 2.475-13.653, 7.438-18.596c 4.949-4.964, 10.837-7.438, 17.664-7.438l 148.772,0 
	c 6.827,0, 12.693,2.475, 17.664,7.438c 4.964,4.942, 7.438,11.157, 7.438,18.596L 355.492,372.359 z M 355.492,53.426l-58.581,52.068l-14.876,0 l 8.37-11.15
	l-69.739,0 l 9.301,11.15l-14.876,0 l-58.581-52.999l 30.684,0.932l 16.74,20.459l 104.142-0.932l 16.74-20.459L 355.492,53.426z M 180.686,234.745
	c-1.863,2.468-2.795,5.582-2.795,9.301L 177.892,322.148 c0,3.719, 0.932,6.812, 2.795,9.301c 1.856,2.475, 4.025,3.719, 6.507,3.719l 137.614,0 
	c 2.475,0, 4.8-1.244, 6.976-3.719c 2.176-2.482, 3.25-5.575, 3.25-9.301l0-78.101 c0-3.719-1.074-6.827-3.25-9.301
	c-2.183-2.489-4.508-3.719-6.976-3.719L 187.193,231.026 C 184.711,231.026, 182.542,232.256, 180.686,234.745z M 209.508,183.602
	c0-4.359-1.55-8.085-4.651-11.157c-3.108-3.115-6.827-4.651-11.157-4.651c-4.345,0-8.064,1.543-11.157,4.651
	c-3.108,3.079-4.651,6.798-4.651,11.157c0,4.324, 1.543,8.050, 4.651,11.15c 3.1,3.086, 6.812,4.651, 11.157,4.651
	c 4.331,0, 8.050-1.572, 11.157-4.651C 207.957,191.652, 209.508,187.932, 209.508,183.602z M 208.583,366.777c0,6.812, 2.468,10.226, 7.438,10.226
	l 80.889,0 c 4.331,0, 6.514-3.413, 6.514-10.226c0-6.827-2.183-10.226-6.514-10.226L 216.014,356.551 C 211.051,356.551, 208.583,359.95, 208.583,366.777z
	 M 335.033,183.602c0-4.359-1.543-8.085-4.644-11.157c-3.115-3.115-6.834-4.651-11.157-4.651c-4.331,0-8.078,1.543-11.157,4.651
	c-3.115,3.079-4.644,6.798-4.644,11.157c0,4.324, 1.536,8.050, 4.644,11.15c 3.086,3.086, 6.827,4.651, 11.157,4.651
	c 4.324,0, 8.050-1.572, 11.157-4.651C 333.49,191.652, 335.033,187.932, 335.033,183.602z" />
<glyph unicode="&#x5e;" d="M 383.673,454.13c 6.542-7.175, 9.82-15.431, 9.82-24.782l0-305.849 c0-9.991-3.278-18.411-9.82-25.252
	c-6.549-6.869-14.5-10.29-23.851-10.29L 152.178,87.957 c-9.351,0-17.308,3.42-23.851,10.29c-6.549,6.841-9.82,15.26-9.82,25.252L 118.507,429.34 
	c0,9.351, 3.271,17.614, 9.82,24.782c 6.542,7.161, 14.5,10.759, 23.851,10.759L 359.822,464.882 C 369.173,464.889, 377.124,461.291, 383.673,454.13z M 312.121,58.958
	l 81.372-72.021l-42.091-0.939l-23.381,28.999L 183.979,14.997 l-22.443-28.060l-43.029-0.939l 80.441,72.96l 20.58,0 l-12.16-14.962l 96.334,0 l-11.221,14.962
	L 312.121,58.958 z M 147.506,250.695c0-4.999, 1.244-9.209, 3.74-12.622c 2.489-3.435, 5.924-5.148, 10.29-5.148l 188.928,0 
	c 4.352,0, 7.808,1.707, 10.29,5.148c 2.489,3.413, 3.74,7.63, 3.74,12.622L 364.494,359.196 c0,4.985-1.259,9.351-3.74,13.092
	c-2.489,3.74-5.938,5.618-10.29,5.618L 161.536,377.906 c-4.373,0-7.808-1.87-10.29-5.618c-2.496-3.74-3.74-8.114-3.74-13.092L 147.506,250.695 z
	 M 190.528,167.46c0,6.222-2.034,11.371-6.080,15.431c-4.060,4.032-9.202,6.073-15.431,6.073c-6.236,0-11.385-2.041-15.431-6.073
	c-4.060-4.060-6.080-9.209-6.080-15.431c0-6.258, 2.020-11.406, 6.080-15.438c 4.046-4.060, 9.188-6.073, 15.431-6.073
	c 6.229,0, 11.371,2.012, 15.431,6.073C 188.494,156.053, 190.528,161.202, 190.528,167.46z M 190.528,421.39c0-9.671, 3.115-14.5, 9.351-14.5l 112.235,0 
	c 6.229,0, 9.351,4.821, 9.351,14.5c0,9.657-3.122,14.5-9.351,14.5L 199.879,435.89 C 193.643,435.89, 190.528,431.054, 190.528,421.39z M 364.501,167.46
	c0,6.222-2.020,11.371-6.080,15.431c-4.060,4.032-9.031,6.073-14.962,6.073c-5.931,0-11.079-2.041-15.431-6.073
	c-4.352-4.060-6.549-9.209-6.549-15.431c0-6.258, 2.197-11.406, 6.549-15.438c 4.352-4.060, 9.5-6.073, 15.431-6.073
	c 5.938,0, 10.901,2.012, 14.962,6.073C 362.482,156.053, 364.501,161.202, 364.501,167.46z" />
<glyph unicode="&#x5f;" d="M 493.099,225.444c0-65.408-23.132-121.216-69.397-167.488c-46.272-46.265-102.101-69.404-167.488-69.404
	c-65.394,0-121.216,23.14-167.488,69.404c-46.265,46.272-69.397,102.073-69.397,167.488c0,65.38, 23.132,121.216, 69.397,167.488
	S 190.82,462.329, 256.213,462.329c 65.38,0, 121.216-23.132, 167.488-69.397C 469.966,346.667, 493.099,290.823, 493.099,225.444z M 396.871,225.444
	c0,38.862-13.739,72.014-41.18,99.47c-27.435,27.442-60.608,41.18-99.47,41.18c-38.862,0-72.028-13.732-99.47-41.18
	c-27.456-27.456-41.18-60.608-41.18-99.47c0-38.862, 13.717-72.036, 41.18-99.47c 27.442-27.47, 60.608-41.18, 99.47-41.18
	c 38.862,0, 72.036,13.71, 99.47,41.18C 383.132,153.408, 396.871,186.581, 396.871,225.444z M 308.956,196.757c0-12.949-3.705-24.057-11.108-33.316
	c-6.158-6.791-13.881-11.733-23.132-14.805c-1.856-0.633-4.302-1.244-7.403-1.849l0-12.025 c0-4.338-0.32-7.403-0.924-9.259
	c-1.856-4.331-5.248-6.478-10.183-6.478c-4.324,0-7.403,2.148-9.252,6.478c-1.244,1.856-1.849,4.914-1.849,9.259l0,11.108 
	c-8.647,0.604-16.654,2.46-24.057,5.547c-11.726,4.309-17.579,10.788-17.579,19.428c0,4.309, 1.23,8.334, 3.705,12.032
	c 3.079,3.065, 6.784,4.622, 11.108,4.622c 2.46,0, 4.928-0.32, 7.403-0.924l 12.025-4.629c 6.158-1.849, 12.032-2.773, 17.586-2.773
	c 6.158,0, 10.788,1.849, 13.874,5.547c 2.46,3.065, 3.705,6.478, 3.705,10.183c0,4.914-2.169,8.939-6.471,12.025
	c-4.324,1.856-11.42,4.302-21.284,7.403c-10.496,3.079-17.579,5.554-21.284,7.403c-7.403,3.705-12.956,9.557-16.654,17.579
	c-2.475,5.554-3.705,11.406-3.705,17.586c0,13.561, 4.622,24.981, 13.881,34.233c 6.158,6.158, 12.956,10.183, 20.359,12.032
	c 2.46,0.604, 4.928,1.23, 7.403,1.849l0,11.108 c0,4.309, 0.604,7.403, 1.849,9.252c 1.849,4.302, 5.092,6.478, 9.714,6.478
	c 4.629,0, 7.865-2.169, 9.721-6.478c 0.604-1.849, 0.924-4.942, 0.924-9.252l0-10.183 c 9.252-1.849, 16.654-4.324, 22.208-7.403
	c 6.791-4.324, 10.183-9.252, 10.183-14.805c0-4.942-2.176-9.252-6.478-12.956c-2.46-2.475-5.867-3.705-10.183-3.705
	c-2.46,0-7.403,1.23-14.805,3.705c-4.316,1.23-8.021,1.849-11.108,1.849c-4.942,0-8.946-1.244-12.025-3.705
	c-3.705-2.475-5.554-5.554-5.554-9.252c0-2.475, 1.23-4.942, 3.705-7.403c 1.23-1.244, 4.629-2.773, 10.183-4.622
	c 16.654-4.324, 28.686-8.953, 36.089-13.881C 302.478,225.749, 308.956,213.419, 308.956,196.757z" />
<glyph unicode="&#x60;" d="M 496.085,225.451c0-66.29-23.445-122.844-70.336-169.749c-46.905-46.891-103.488-70.329-169.749-70.329
	c-66.276,0-122.852,23.438-169.742,70.329c-46.891,46.905-70.336,103.46-70.336,169.749c0,66.261, 23.445,122.852, 70.336,169.742
	C 133.148,442.084, 189.724,465.529, 256,465.529c 66.261,0, 122.844-23.445, 169.749-70.336C 472.64,348.302, 496.085,291.712, 496.085,225.451z M 346.027,176.69
	c0,28.132-11.25,49.38-33.756,63.765c-11.904,7.502-32.213,15.317-60.956,23.445c-9.38,2.489-15.332,4.999-17.82,7.502
	c-3.748,3.755-5.632,7.815-5.632,12.196c0,6.869, 3.122,12.494, 9.38,16.882c 5.632,3.755, 12.188,5.632, 19.698,5.632
	c 5.625,0, 12.494-1.259, 20.636-3.755c 11.861-3.748, 19.982-5.625, 24.384-5.625c 6.848,0, 12.8,1.877, 17.813,5.625
	c 6.244,6.244, 9.372,13.746, 9.372,22.514c0,9.991-5.298,18.126-15.943,24.384c-9.365,5.625-22.208,9.685-38.443,12.188l0,18.759 
	c0,7.502-0.647,12.807-1.877,15.943c-3.136,6.244-8.761,9.38-16.882,9.38c-7.502,0-12.821-3.136-15.943-9.38
	c-1.259-3.136-1.877-8.441-1.877-15.943l0-18.759 c-5.625-1.259-10.005-2.197-13.127-2.816c-13.127-4.38-24.704-11.577-34.695-21.568
	c-15.637-16.27-23.445-35.328-23.445-57.209c0-11.257, 1.877-21.568, 5.632-30.948c 6.244-13.127, 15.623-23.147, 28.139-30.016
	c 6.244-3.748, 18.432-8.149, 36.572-13.12c 16.882-4.402, 28.75-8.448, 35.641-12.203c 8.121-4.388, 12.188-11.25, 12.188-20.629
	c0-6.272-2.197-11.577-6.564-15.943c-5.625-6.884-13.76-10.311-24.384-10.311c-9.38,0-19.385,1.877-30.009,5.625l-19.698,6.564
	c-4.38,1.877-8.441,2.816-12.188,2.816c-7.502,0-13.76-3.136-18.759-9.38c-5.013-5.625-7.502-12.196-7.502-19.698
	c0-15.004, 9.998-26.254, 30.009-33.764c 12.501-5.006, 26.567-8.149, 42.204-9.372l0-18.759 c0-6.855, 0.619-12.188, 1.877-15.936
	c 3.122-6.244, 8.441-9.38, 15.943-9.38c 8.121,0, 13.746,3.136, 16.882,9.38c 1.23,3.748, 1.877,9.081, 1.877,15.936l0,21.575 
	c 5.625,1.23, 9.991,2.169, 13.134,2.809c 15.616,4.985, 28.459,13.433, 38.443,25.33C 339.456,136.036, 346.027,154.795, 346.027,176.69z" />
<glyph unicode="&#x61;" d="M 494.805,225.451c0-65.856-23.296-122.091-69.895-168.697c-46.606-46.599-102.841-69.895-168.697-69.895
	c-65.884,0-122.091,23.296-168.697,69.895c-46.599,46.606-69.902,102.841-69.902,168.697c0,65.849, 23.296,122.091, 69.902,168.697
	s 102.812,69.902, 168.697,69.902c 65.856,0, 122.091-23.296, 168.697-69.902C 471.509,347.548, 494.805,291.3, 494.805,225.451z M 419.321,225.451
	c0,45.348-15.851,83.883-47.538,115.57S 301.561,388.551, 256.213,388.551c-45.376,0-83.883-15.844-115.57-47.531s-47.531-70.222-47.531-115.57
	s 15.844-83.883, 47.531-115.57s 70.194-47.538, 115.57-47.538c 45.348,0, 83.883,15.851, 115.57,47.538S 419.321,180.103, 419.321,225.451z
	 M 378.304,225.451c0-33.557-11.968-62.3-35.883-86.208c-23.936-23.915-52.651-35.883-86.208-35.883c-33.55,0-62.3,11.968-86.215,35.883
	c-23.943,23.908-35.883,52.651-35.883,86.208c0,33.55, 11.94,62.286, 35.883,86.215c 23.915,23.908, 52.658,35.883, 86.215,35.883
	c 33.557,0, 62.272-11.975, 86.208-35.883C 366.343,287.737, 378.304,259.001, 378.304,225.451z M 332.174,211.008c 4.018,4.046, 6.059,8.853, 6.059,14.443
	c0,5.596-2.034,10.396-6.059,14.443c-4.046,4.032-8.853,6.059-14.443,6.059l-41.010,0 l0,41.010 c0,5.589-2.041,10.396-6.066,14.443
	c-4.046,4.032-8.853,6.059-14.443,6.059s-10.425-2.027-14.443-6.059c-4.046-4.046-6.059-8.853-6.059-14.443l0-61.511 
	c0-5.589, 2.012-10.396, 6.059-14.443c 4.018-4.046, 8.853-6.066, 14.443-6.066l 61.511,0 C 323.321,204.942, 328.128,206.962, 332.174,211.008z" />
<glyph unicode="&#x62;" d="M 495.424,225.451c0-58.603-20.75-108.644-62.201-150.116c-41.472-41.479-91.833-62.201-151.054-62.201
	c-8.74,0-17.479,0.32-26.19,0.939l0,54.251 c 8.711-1.877, 17.451-2.816, 26.19-2.816c 44.26,0, 81.984,15.58, 113.173,46.77
	c 31.161,31.189, 46.77,68.892, 46.77,113.173c0,44.267-15.609,81.984-46.77,113.173c-31.189,31.175-68.743,46.77-112.704,46.77
	c-43.961,0-81.55-15.595-112.711-46.77c-31.189-31.189-46.77-68.907-46.77-113.173c0-8.74, 0.612-17.451, 1.87-26.19l 51.442,0 L 97.913,105.728
	L 16.533,199.26l 55.182,0 c-1.259,8.74-1.87,17.451-1.87,26.19c0,58.603, 20.729,108.644, 62.201,150.123c 41.444,41.465, 91.662,62.201, 150.592,62.201
	c 58.923,0, 109.113-20.736, 150.585-62.201C 474.674,334.094, 495.424,284.053, 495.424,225.451z M 309.291,304.953l0-53.319 l 53.312,0 
	c 6.841,0, 12.921-2.496, 18.24-7.481c 5.291-4.999, 7.95-11.228, 7.95-18.709c0-7.481-2.66-13.71-7.95-18.709
	c-5.319-4.992-11.406-7.481-18.24-7.481L 282.169,199.253 c-6.869,0-12.942,2.489-18.233,7.481c-5.319,4.999-7.95,11.228-7.95,18.709l0,79.502 
	c0,7.481, 2.631,13.867, 7.95,19.172c 5.291,5.291, 11.513,7.95, 18.709,7.95c 7.161,0, 13.383-2.66, 18.702-7.95
	C 306.631,318.82, 309.291,312.441, 309.291,304.953z" />
<glyph unicode="&#x63;" d="M 495.004,225.451c0-65.806-23.353-122.069-70.044-168.747c-46.706-46.684-102.948-70.044-168.747-70.044
	c-65.806,0-122.069,23.353-168.754,70.044C 40.747,103.381, 17.422,159.644, 17.422,225.451c0,65.806, 23.324,122.055, 70.037,168.754
	C 134.144,440.889, 190.407,464.242, 256.213,464.242c 65.806,0, 122.041-23.36, 168.747-70.037C 471.652,347.506, 495.004,291.257, 495.004,225.451z M 434.837,225.451
	c0,49.5-17.394,91.662-52.181,126.45s-76.942,52.174-126.443,52.174c-49.529,0-91.662-17.394-126.45-52.174s-52.174-76.942-52.174-126.45
	c0-49.5, 17.394-91.662, 52.174-126.443s 76.914-52.181, 126.45-52.181c 49.5,0, 91.662,17.394, 126.443,52.181S 434.837,175.95, 434.837,225.451z
	 M 366.677,246.606c 5.931-5.966, 8.932-13.013, 8.932-21.156s-3.001-15.189-8.932-21.156c-5.966-5.966-13.013-8.932-21.156-8.932L 256.213,195.364 
	c-8.164,0-15.218,2.965-21.156,8.932c-5.966,5.966-8.932,13.013-8.932,21.156l0,89.316 c0,8.142, 2.965,15.189, 8.932,21.156
	c 5.931,5.945, 12.985,8.932, 21.156,8.932c 8.142,0, 15.189-2.98, 21.156-8.932c 5.938-5.966, 8.932-13.013, 8.932-21.156l0-59.228 l 59.228,0 
	C 353.664,255.538, 360.718,252.551, 366.677,246.606z" />
<glyph unicode="&#x64;" d="M 495.908,116.892c-12.21-20.565-26.631-39.246-43.42-55.986c-49.486-50.276-109.689-75.406-180.494-75.406
	c-70.841,0-131.228,24.96-181.106,74.83C 40.967,110.208, 16.043,170.596, 16.043,241.436S 40.789,372.836, 90.318,423.111
	c 16.74,16.747, 35.42,30.848, 55.986,42.276c-27.42-48.754-37.348-101.696-29.71-158.827c 7.609-57.131, 31.78-106.254, 72.555-147.399
	c 40.74-41.138, 89.87-65.522, 147.364-73.131C 393.998,78.428, 447.14,88.718, 495.908,116.892z" />
<glyph unicode="&#x65;" d="M 493.568,225.436c0-65.572-23.204-121.572-69.604-167.972s-102.4-69.604-167.972-69.604
	c-65.6,0-121.572,23.204-167.972,69.604c-46.4,46.4-69.604,102.4-69.604,167.972c0,65.572, 23.204,121.572, 69.604,167.972
	c 46.4,46.4, 102.372,69.604, 167.972,69.604c 65.572,0, 121.572-23.204, 167.972-69.604C 470.372,347.008, 493.568,291.008, 493.568,225.436z
	 M 353.436,354.432c-9.92,9.892-21.056,18.24-33.408,25.052c 16.704-28.459, 22.734-59.712, 18.098-93.732c-4.636-34.034-19.029-63.111-43.15-87.232
	c-24.135-24.135-53.070-38.372-86.777-42.695c-33.728-4.316-65.138,1.543-94.194,17.628c 7.424-11.74, 15.78-22.592, 25.060-32.476
	c 29.696-29.696, 65.422-44.551, 107.186-44.551c 41.756,0, 77.312,14.706, 106.724,44.082c 29.376,29.383, 44.231,64.967, 44.551,106.724
	C 397.803,289.010, 383.132,324.736, 353.436,354.432z" />
<glyph unicode="&#x66;" d="M 494.464,224.988c0-65.948-23.332-122.133-70.009-168.476c-46.663-46.35-102.962-69.532-168.924-69.532
	c-65.977,0-122.133,23.189-168.476,69.532C 40.676,102.855, 17.515,159.033, 17.515,224.988c0,65.948, 23.161,122.276, 69.54,168.946
	c 46.35,46.67, 102.5,70.002, 168.476,70.002c 65.963,0, 122.261-23.332, 168.924-70.002C 471.132,347.257, 494.464,290.937, 494.464,224.988z
	 M 335.787,224.988l-20.537,21.468l-35.463,38.272c-6.827,6.841-13.518,6.841-20.053,0c-6.528-6.855-6.386-14.002, 0.462-21.468l 20.523-21.468L 191.125,241.792 
	c-4.373,0-7.936-1.557-10.731-4.665c-2.802-3.122-4.203-6.997-4.203-11.669s 1.401-8.548, 4.203-11.669
	c 2.802-3.122, 6.357-4.665, 10.731-4.665l 89.593,0 l-20.523-22.4c-6.848-6.855-6.997-13.682-0.462-20.537c 6.535-6.855, 13.227-6.855, 20.053,0
	l 9.33,10.268l 26.133,28.004L 335.787,224.988z" />
<glyph unicode="&#x67;" d="M 494.108,225.451l-59.036-62.535L 356.928,79.559l-29.518-31.26c-8.142-9.223-17.956-13.888-29.518-13.888
	c-11.612,0-21.433,4.338-29.518,13.020c-8.142,8.683-12.153,19.108-12.153,31.26s 4.011,22.905, 12.153,32.128l 62.514,65.984L 61.732,176.804 
	c-11.612,0-21.703,4.992-30.386,14.763c-8.683,9.849-13.028,21.461-13.028,34.752s 4.338,24.583, 13.028,33.863
	c 8.683,9.252, 18.773,13.895, 30.386,13.895l 269.156,0 l-62.514,65.984c-8.142,9.252-12.153,19.968-12.153,32.128s 4.011,22.578, 12.153,31.26
	c 8.092,8.683, 17.913,13.028, 29.518,13.028c 11.563,0, 21.383-4.636, 29.518-13.895l 107.669-114.61L 494.108,225.451z" />
<glyph unicode="&#x68;" d="M 493.98,224c0-65.628-23.225-121.664-69.66-168.107s-102.478-69.66-168.107-69.66c-65.65,0-121.664,23.225-168.107,69.66
	C 41.671,102.336, 18.453,158.372, 18.453,224c0,65.621, 23.218,121.664, 69.653,168.107c 46.443,46.436, 102.457,69.653, 168.107,69.653
	c 65.628,0, 121.664-23.218, 168.107-69.653C 470.756,345.664, 493.98,289.621, 493.98,224z M 315.193,164.565c 2.788,3.108, 4.174,6.962, 4.174,11.605
	c0,4.644-1.387,8.505-4.174,11.612c-2.795,3.108-6.364,4.644-10.681,4.644L 215.353,192.427 l 20.43,22.293c 6.791,6.82, 6.962,13.767, 0.462,20.892
	c-6.5,7.111-13.177,6.962-19.968-0.462l-9.287-10.219l-26.005-27.868l-20.437-20.43l 20.437-21.362l 35.292-38.073c 6.791-6.827, 13.468-6.827, 19.968,0
	c 6.5,6.82, 6.329,13.611-0.462,20.43l-20.43,22.293l 89.166,0 C 308.836,159.915, 312.405,161.451, 315.193,164.565z M 350.955,271.367l-19.506,20.43
	l-36.224,39.012c-6.208,6.805-12.537,6.649-19.044-0.462c-6.5-7.125-6.67-14.087-0.455-20.892l 21.362-22.293L 206.99,287.161 
	c-3.712,0-7.14-1.55-10.219-4.644c-3.108-3.108-4.644-6.82-4.644-11.143c0-4.338, 1.536-8.057, 4.644-11.143
	c 3.079-3.108, 6.5-4.644, 10.219-4.644l 90.091,0 l-21.362-22.286c-6.215-6.82-6.044-13.788, 0.455-20.9c 6.507-7.111, 12.836-7.282, 19.044-0.462
	l 10.219,11.15l 26.005,27.861L 350.955,271.367z" />
<glyph unicode="&#x69;" d="M 384.341,147.172c 6.258-7.047, 9.387-15.417, 9.387-25.038c0-9.55-3.129-17.685-9.387-24.42
	c-6.258-6.649-13.575-10.012-21.909-10.012L 168.356,87.701 l 45.077-47.58c 5.824-6.656, 8.761-14.4, 8.761-23.168c0-8.754-2.937-16.27-8.761-22.535
	c-5.867-6.258-12.949-9.387-21.291-9.387c-8.37,0-15.452,2.972-21.284,8.761L 91.975,77.682l-42.574,45.077l 42.574,45.077l 57.6,60.117
	l 21.284,22.535c 5.831,6.67, 12.914,10.020, 21.284,10.020c 8.334,0, 15.417-3.129, 21.291-9.394c 5.824-6.258, 8.761-13.988, 8.761-23.161
	c0-9.195-2.937-16.711-8.761-22.535l-45.077-47.602l 194.076,0 C 370.766,157.81, 378.084,154.29, 384.341,147.172z M 462.599,328.121l-42.574-45.077
	l-57.593-60.103l-21.291-22.535c-5.867-6.67-12.942-10.034-21.276-10.034c-8.384,0-15.46,3.136-21.291,9.408
	c-5.867,6.258-8.761,13.973-8.761,23.161c0,9.18, 2.894,16.69, 8.761,22.542l 45.077,47.58L 149.575,293.063 c-8.377,0-15.652,3.541-21.916,10.638
	c-6.258,7.083-9.387,15.438-9.387,25.045c0,9.586, 3.129,17.728, 9.387,24.412c 6.258,6.67, 13.54,10.020, 21.916,10.020l 194.076,0 l-45.077,47.58
	c-5.867,6.67-8.761,14.4-8.761,23.161c0,8.768, 2.894,16.277, 8.761,22.542c 5.831,6.258, 12.907,9.387, 21.291,9.387
	c 8.334,0, 15.41-2.937, 21.276-8.768L 420.018,373.191L 462.599,328.121z" />
<glyph unicode="&#x6a;" d="M 68.274,130.347c 3.136-2.51, 4.864-5.66, 5.184-9.436c 0.306-3.769-0.796-7.068-3.3-9.906
	c-2.517-2.83-5.98-4.572-10.375-5.184l-28.302-1.892c-3.776,0-7.239,1.088-10.375,3.307c-3.15,2.212-4.878,5.333-5.184,9.429
	c-0.32,4.096, 0.782,7.552, 3.3,10.375c 2.51,2.83, 5.66,4.252, 9.436,4.252l 29.241,2.823C 61.668,134.116, 65.116,132.857, 68.274,130.347z
	 M 119.218,237.888l-23.58,21.696c-3.776,2.503-5.824,6.13-6.13,10.844c-0.327,4.722, 0.946,8.804, 3.776,12.267
	c 2.83,3.449, 6.443,5.333, 10.844,5.66c 4.395,0.306, 8.164-0.796, 11.321-3.3l 24.526-21.696c 3.136-3.157, 4.864-7.076, 5.184-11.797
	c 0.313-4.715-0.939-8.811-3.769-12.26c-2.83-3.463-6.457-5.355-10.852-5.66C 126.13,233.323, 122.354,234.738, 119.218,237.888z
	 M 351.282,210.062c 31.424-31.132, 48.732-66.51, 51.883-106.133l-294.329,0 c-3.15,37.739, 8.64,71.076, 35.378,99.996
	c 26.724,28.914, 60.523,44.956, 101.412,48.107C 284.594,255.175, 319.829,241.188, 351.282,210.062z M 238.080,329.394
	c-0.633,3.769, 0.619,7.076, 3.769,9.906c 3.143,2.83, 7.076,4.395, 11.79,4.722c 4.722,0.306, 8.96-0.796, 12.743-3.3
	c 3.769-2.517, 5.66-5.66, 5.66-9.436l 2.823-28.302c 0.619-3.769-0.647-7.076-3.769-9.906c-3.15-2.83-7.239-4.409-12.267-4.722
	c-5.042-0.32-9.287,0.782-12.736,3.3c-3.463,2.51-5.511,5.66-6.13,9.436L 238.080,329.394z M 436.181,262.414l-21.696-23.58
	c-2.532-3.157-6.13-4.885-10.844-5.191c-4.715-0.32-8.811,0.946-12.267,3.776c-3.477,2.83-5.369,6.279-5.66,10.375
	c-0.327,4.082, 1.088,8.014, 4.245,11.79l 20.757,23.58c 3.122,3.136, 7.076,4.864, 11.79,5.184c 4.715,0.306, 8.782-0.939, 12.267-3.776
	c 3.442-2.83, 5.333-6.293, 5.66-10.375C 440.725,270.108, 439.303,266.19, 436.181,262.414z M 483.356,106.766l-27.364-2.83
	c-4.423,0-8.014,1.415-10.844,4.245c-2.83,2.83-4.423,6.606-4.715,11.328c-0.327,4.715, 0.761,8.96, 3.3,12.729
	c 2.51,3.776, 5.66,5.668, 9.436,5.668l 28.295,2.823c 3.769,0.619, 7.076-0.619, 9.906-3.769c 2.83-3.157, 4.395-7.076, 4.722-11.79
	c 0.292-4.722-0.796-8.818-3.307-12.267C 490.247,109.447, 487.125,107.385, 483.356,106.766z" />
<glyph unicode="&#x6b;" d="M 494.137,225.451c0-65.728-23.26-121.863-69.774-168.37c-46.507-46.514-102.642-69.774-168.37-69.774
	c-65.742,0-121.863,23.26-168.37,69.774c-46.514,46.507-69.767,102.642-69.767,168.37s 23.253,121.863, 69.767,168.37
	C 134.137,440.334, 190.258,463.588, 256,463.588c 65.728,0, 121.863-23.253, 168.37-69.767C 470.884,347.314, 494.137,291.179, 494.137,225.451z M 110.421,166.848
	c 2.162,2.475, 3.093,5.12, 2.795,7.9c-0.32,2.802-1.721,5.269-4.188,7.445c-2.482,2.183-5.276,2.937-8.37,2.325l-22.329-1.863
	c-3.115,0-5.746-1.067-7.908-3.257c-2.176-2.183-3.108-4.8-2.795-7.9c 0.306-3.115, 1.707-5.582, 4.188-7.445
	c 2.475-1.863, 5.262-2.795, 8.37-2.795l 22.329,1.863C 105.607,163.122, 108.238,164.373, 110.421,166.848z M 130.418,283.122l 18.61-16.74
	c 6.194-6.208, 11.932-5.902, 17.209,0.932c 5.262,6.812, 4.793,13.028-1.394,18.603l-18.603,16.74c-6.208,5.582-11.954,5.12-17.209-1.394
	C 123.748,294.756, 124.21,288.711, 130.418,283.122z M 371.349,161.266c-2.468,31.012-15.957,58.603-40.455,82.795
	c-24.512,24.185-52.26,35.349-83.264,33.486c-32.249-2.489-58.759-15.047-79.531-37.675c-20.786-22.649-29.924-48.832-27.442-78.606L 371.349,161.266 z
	 M 242.048,337.081l 1.856-21.397c0-3.115, 1.394-5.582, 4.188-7.438c 2.788-1.863, 6.044-2.645, 9.771-2.325
	c 3.719,0.306, 6.82,1.543, 9.308,3.719c 2.468,2.162, 3.712,4.793, 3.712,7.908l-1.856,21.39c-0.633,3.1-2.325,5.582-5.12,7.445
	s-6.052,2.788-9.771,2.788s-6.827-1.252-9.301-3.719C 242.354,342.962, 241.422,340.174, 242.048,337.081z M 396.004,303.125
	c-6.507,5.262-12.558,4.8-18.14-1.394l-17.671-18.61c-5.582-6.208-4.971-11.947, 1.856-17.209c 6.841-5.276, 13.035-4.807, 18.603,1.394
	l 16.747,18.603C 402.98,292.11, 402.517,297.849, 396.004,303.125z M 441.586,168.242c 2.183,2.795, 3.115,6.044, 2.788,9.771
	c-0.313,3.712-1.707,6.827-4.181,9.301s-4.971,3.399-7.445,2.788l-22.329-1.856c-3.115-0.619-5.582-2.325-7.438-5.12
	c-1.863-2.795-2.645-6.052-2.332-9.764c 0.327-3.726, 1.543-6.663, 3.726-8.839c 2.183-2.183, 4.793-3.257, 7.9-3.257l 21.404,1.863
	C 436.786,163.733, 439.403,165.454, 441.586,168.242z" />
<glyph unicode="&#x6c;" d="M 200.334,420.302l0-390.322 c0-16.043-5.575-27.406-16.711-34.091c-11.15-6.677-26.069-10.020-44.779-10.020
	c-41.003,0-61.49,14.699-61.49,44.11L 77.355,420.302 c0,16.036, 5.554,27.399, 16.711,34.084c 11.129,6.684, 26.069,10.027, 44.779,10.027
	C 179.833,464.412, 200.334,449.707, 200.334,420.302z M 439.609,420.302l0-390.322 c0-16.043-5.554-27.406-16.718-34.091
	c-11.143-6.677-26.062-10.020-44.772-10.020c-41.024,0-61.49,14.699-61.49,44.11L 316.629,420.302 c0,16.036, 5.554,27.399, 16.718,34.084
	c 11.143,6.684, 26.062,10.027, 44.779,10.027C 419.1,464.412, 439.609,449.707, 439.609,420.302z" />
<glyph unicode="&#x6d;" d="M 444.636,243.705c 2.084-2.076, 4.11-4.907, 6.18-8.505c 2.084-3.627, 3.1-6.962, 3.1-10.048
	c0-8.263-4.103-14.926-12.366-20.096L 102.926-5.241c-12.366-8.249-22.955-9.799-31.694-4.644c-8.768,5.184-13.148,15.474-13.148,30.933L 58.084,429.248 
	c0,15.46, 4.373,25.756, 13.148,30.926c 8.74,5.148, 19.328,3.598, 31.694-4.644l 338.624-210.283L 444.636,243.705z" />
<glyph unicode="&#x6e;" d="M 108.885-0.974l 55.865,173.184L 17.636,279.289l 182.492,0 L 256,452.473l0-346.368 L 108.885-0.974z" />
<glyph unicode="&#x6f;" d="M 347.712,172.096l 56.171-174.137L 255.964,105.628L 108.039-2.041l 56.171,174.137L 16.299,279.765l 183.495,0 L 255.964,453.902
	l 56.171-174.137l 183.502,0 L 347.712,172.096z M 321.5,180.523l 104.853,76.772l-130.133,0 l-40.256,123.577l0-247.161 l 105.792-76.772L 321.5,180.523z" />
<glyph unicode="&#x70;" d="M 347.918,171.982l 56.299-174.528L 255.964,105.351L 107.712-2.546l 56.299,174.528L 15.758,279.879l 183.908,0 l 56.299,174.528
	l 56.299-174.528l 183.908,0 L 347.918,171.982z" />
<glyph unicode="&#x71;" d="M 347.833,172.501l 56.256-174.372l-148.124,106.873l-148.124-106.873l 56.249,174.372L 15.972,279.374l 183.744,0 l 56.249,174.372
	l 56.242-174.372l 183.758,0 L 347.833,172.501z M 321.586,180.935l 105.003,75.932L 296.284,256.868 l-40.32,124.686l-40.313-124.686L 85.348,256.868 l 104.996-75.932
	L 150.030,56.249l 105.934,76.878L 361.899,56.249L 321.586,180.935z" />
<glyph unicode="&#x72;" d="M 454.77,390.080c 26.012-26.012, 39.012-57.593, 39.012-94.741c0-37.156-12.999-68.736-39.012-94.756l-177.408-179.271
	c-6.208-5.568-13.319-8.363-21.362-8.363c-8.057,0-15.182,2.795-21.362,8.363L 57.223,200.583c-26.005,26.020-39.012,57.6-39.012,94.756
	c0,37.156, 13.006,68.736, 39.012,94.741c 26.005,26.005, 57.593,39.012, 94.741,39.012c 33.436,0, 63.161-13.006, 89.173-39.012l 0.924,0 L 256,372.437
	l 13.931,18.574l 0.932,0 c 25.365,25.387, 55.125,38.080, 89.166,38.080C 397.184,429.092, 428.764,416.092, 454.77,390.080z M 313.593,352L 301.511,337.138
	l-43.655-54.805l-45.511,52.942l-13.006,15.787c-14.251,13.618-30.044,20.437-47.374,20.437c-21.056,0-39.012-7.431-53.874-22.293
	c-14.862-14.862-22.293-32.832-22.293-53.874c0-21.056, 7.431-39.012, 22.293-53.874L 256,82.617l 157.902,158.848c 14.862,14.862, 22.293,32.818, 22.293,53.874
	c0,21.042-7.431,39.012-22.293,53.874s-32.825,22.293-53.874,22.293C 342.066,371.506, 326.592,365.006, 313.593,352z" />
<glyph unicode="&#x73;" d="M 456.647,391.68c 26.254-26.254, 39.381-58.133, 39.381-95.637c0-37.504-13.127-69.383-39.381-95.63L 277.561,19.449
	c-6.251-5.625-13.447-8.448-21.561-8.448c-8.135,0-15.324,2.816-21.568,8.448L 55.353,200.412c-26.254,26.247-39.381,58.126-39.381,95.63
	c0,37.504, 13.127,69.383, 39.381,95.637s 58.133,39.381, 95.637,39.381c 33.756,0, 63.758-13.127, 90.012-39.381l 0.939,0 L 256,373.867l 14.066,18.752l 0.939,0 
	c 25.628,25.621, 55.644,38.443, 90.012,38.443C 398.514,431.061, 430.393,417.934, 456.647,391.68z" />
<glyph unicode="&#x20;" horiz-adv-x="256" />
</font>
</defs>
</svg>
